<svg width="207" height="200" viewBox="0 0 207 200" fill="none" xmlns="http://www.w3.org/2000/svg">
<g clip-path="url(#clip0_40_6874)">
<path opacity="0.6" d="M168.487 144.157C195.829 117.065 195.829 73.1412 168.487 46.0497C141.146 18.9582 96.8163 18.9582 69.4749 46.0497C42.1334 73.1412 42.1334 117.065 69.4748 144.157C96.8163 171.248 141.146 171.248 168.487 144.157Z" fill="#CBCFFF"/>
<path opacity="0.3" d="M204.389 127.442C211.049 141.997 204.55 159.14 189.86 165.748C175.171 172.347 157.87 165.908 151.201 151.353C144.541 136.797 151.039 119.654 165.729 113.047C180.419 106.448 197.72 112.887 204.389 127.442Z" fill="#DA97B8"/>
<path opacity="0.3" d="M76.2299 19.5618C82.89 34.1172 76.3915 51.2601 61.7018 57.8677C47.012 64.4754 29.711 58.0279 23.0424 43.4724C16.3822 28.917 22.8808 11.7742 37.5705 5.1665C52.2602 -1.44117 69.5612 5.00636 76.2299 19.5618Z" fill="#DA97B8"/>
<path d="M130.005 104.72C145.528 138.626 130.379 178.584 96.1595 193.965C61.9402 209.347 21.6136 194.336 6.09034 160.43C-9.43296 126.523 5.71608 86.5739 39.9354 71.1841C74.1547 55.8028 114.481 70.8133 130.005 104.72Z" fill="#CAE1FC"/>
<path d="M35.6655 156.3C35.6655 162.739 30.4004 167.956 23.9019 167.956C17.4033 167.956 12.1382 162.739 12.1382 156.3C12.1382 149.861 17.4033 144.644 23.9019 144.644C30.4004 144.644 35.6655 149.861 35.6655 156.3Z" fill="#BFD4F8"/>
<path d="M127.589 7.30721C127.589 11.3443 124.288 14.6144 120.214 14.6144C116.14 14.6144 112.839 11.3443 112.839 7.30721C112.839 3.27012 116.14 0 120.214 0C124.288 0 127.589 3.27012 127.589 7.30721Z" fill="#BFD4F8"/>
<path d="M186.892 162.234C186.892 162.588 186.663 162.874 186.373 162.874C186.084 162.874 185.854 162.588 185.854 162.234V160.169C185.854 159.815 186.093 159.528 186.373 159.528C186.654 159.528 186.892 159.815 186.892 160.169V162.234Z" fill="#2E3054"/>
<path d="M186.892 154.117C186.892 154.471 186.663 154.758 186.373 154.758C186.084 154.758 185.854 154.471 185.854 154.117V152.052C185.854 151.698 186.093 151.42 186.373 151.42C186.654 151.42 186.892 151.707 186.892 152.052V154.117Z" fill="#2E3054"/>
<path d="M191.085 159.233C191.392 159.41 191.528 159.756 191.383 160C191.239 160.244 190.873 160.303 190.567 160.135L188.763 159.098C188.457 158.921 188.321 158.576 188.466 158.331C188.61 158.087 188.976 158.028 189.282 158.205L191.094 159.241L191.085 159.233Z" fill="#2E3054"/>
<path d="M183.992 155.179C184.298 155.356 184.434 155.702 184.289 155.946C184.145 156.19 183.779 156.249 183.473 156.072L181.67 155.036C181.363 154.859 181.227 154.513 181.372 154.269C181.516 154.024 181.882 153.965 182.188 154.142L183.992 155.179Z" fill="#2E3054"/>
<path d="M190.558 154.142C190.864 153.965 191.23 154.024 191.375 154.269C191.519 154.513 191.383 154.859 191.077 155.036L189.265 156.072C188.959 156.249 188.593 156.19 188.449 155.946C188.304 155.702 188.44 155.356 188.746 155.179L190.55 154.142H190.558Z" fill="#2E3054"/>
<path d="M183.473 158.205C183.779 158.028 184.145 158.087 184.289 158.331C184.434 158.576 184.298 158.921 183.992 159.098L182.188 160.135C181.882 160.312 181.516 160.253 181.372 160.008C181.227 159.764 181.355 159.418 181.67 159.241L183.473 158.205Z" fill="#2E3054"/>
<g clip-path="url(#clip1_40_6874)">
<path fill-rule="evenodd" clip-rule="evenodd" d="M108.255 18H41.1792C35.0305 18 30 23.119 30 29.3748V170.624C30 176.881 35.0305 182 41.1792 182H108.255C114.403 182 119.434 176.881 119.434 170.624V29.3748C119.434 23.119 114.403 18 108.255 18Z" fill="#1E5BB7"/>
<path fill-rule="evenodd" clip-rule="evenodd" d="M113.125 18H46.0498C39.9011 18 34.8706 23.119 34.8706 29.3748V170.624C34.8706 176.881 39.9011 182 46.0498 182H113.125C119.274 182 124.304 176.881 124.304 170.624V29.3748C124.304 23.119 119.274 18 113.125 18Z" fill="#3D7DDA"/>
<path fill-rule="evenodd" clip-rule="evenodd" d="M113.653 23.1793C116.909 23.1793 119.593 25.8637 119.593 29.1189V169.903C119.593 173.159 116.909 175.843 113.653 175.843H45.5221C42.2657 175.843 39.5825 173.159 39.5825 169.903V29.1189C39.5825 25.8625 42.2657 23.1793 45.5221 23.1793" fill="white"/>
<path fill-rule="evenodd" clip-rule="evenodd" d="M79.5875 59.2747C98.3746 59.2747 113.606 74.5051 113.606 93.2933C113.606 112.082 98.3758 127.312 79.5875 127.312C60.7993 127.312 45.5688 112.082 45.5688 93.2933C45.5688 74.5051 60.7993 59.2747 79.5875 59.2747Z" fill="#E7EFF9"/>
<path fill-rule="evenodd" clip-rule="evenodd" d="M79.5873 66.2562C94.5188 66.2562 106.624 78.3606 106.624 93.2933C106.624 108.226 94.52 120.33 79.5873 120.33C64.6547 120.33 52.5503 108.226 52.5503 93.2933C52.5503 78.3606 64.6547 66.2562 79.5873 66.2562Z" fill="#B1D2FC"/>
<path fill-rule="evenodd" clip-rule="evenodd" d="M83.1893 72.4678H75.985V88.0869H71.3224L79.5872 99.1185L87.8519 88.0869H83.1893V72.4678ZM92.7581 101.971V93.8617H97.4724V106.309H61.7031V93.8617H66.228V101.971H92.7594H92.7581Z" fill="#1F3E7A"/>
<path fill-rule="evenodd" clip-rule="evenodd" d="M161.326 165.605L164.803 170.009L167.802 167.283L163.566 163.445L161.326 165.605Z" fill="#F4AF8F"/>
<path fill-rule="evenodd" clip-rule="evenodd" d="M163.712 169.105L160.464 177.609C160.464 177.609 159.182 179.501 160.107 180.22C160.78 180.743 161.433 181.381 162.207 180.653L171.99 171.44C171.99 171.44 172.476 170.597 171.429 169.657C170.736 169.034 169.229 167.878 168.481 167.045C168.209 166.743 167.672 166.567 167.354 166.877C167.135 167.092 166.533 167.809 166.179 168.039C165.318 168.603 163.712 169.103 163.712 169.103" fill="#4C3939"/>
<path fill-rule="evenodd" clip-rule="evenodd" d="M163.215 170.409L160.571 177.329C161.58 177.259 162.035 176.634 162.035 176.634C162.035 176.634 163.712 172.831 163.915 171.662C164.118 170.492 163.633 170.443 163.213 170.409" fill="#6E5C5C"/>
<path fill-rule="evenodd" clip-rule="evenodd" d="M160.464 180.5C161.015 180.926 161.57 181.252 162.206 180.652L171.989 171.438C171.989 171.438 172.372 170.773 171.723 169.965L160.462 180.499L160.464 180.5Z" fill="#140505"/>
<path fill-rule="evenodd" clip-rule="evenodd" d="M152.994 176.309L153.01 171.933L157.255 172.035L156.799 177.024L152.994 176.309Z" fill="#F4AF8F"/>
<path fill-rule="evenodd" clip-rule="evenodd" d="M152.713 175.373C152.713 175.373 146.048 178.112 144.178 179.029C142.725 179.74 141.903 181.237 143.095 182H157.625C157.638 181.966 157.651 181.927 157.664 181.887C157.879 181.168 158.445 176.039 156.933 176.153C155.994 176.224 154.812 176.453 152.713 175.371" fill="#4C3939"/>
<path fill-rule="evenodd" clip-rule="evenodd" d="M151.119 176.032C149.097 176.872 145.71 178.295 144.32 178.96C145.047 179.521 145.741 179.409 145.741 179.409C145.741 179.409 149.687 178.179 150.809 177.382C151.472 176.912 151.339 176.384 151.119 176.032Z" fill="#6E5C5C"/>
<path fill-rule="evenodd" clip-rule="evenodd" d="M142.517 180.574V180.578L142.507 180.897C142.529 181.352 142.711 181.754 143.096 182H157.627C157.639 181.966 157.652 181.927 157.665 181.887C157.706 181.747 157.81 181.017 157.86 180.614L142.518 180.575L142.517 180.574Z" fill="#140505"/>
<path fill-rule="evenodd" clip-rule="evenodd" d="M141.943 113.889L137.264 139.474C136.455 145.39 136.597 145.133 141.438 150.256C141.886 150.731 142.375 151.229 142.907 151.751C148.053 156.794 161.91 167.901 161.91 167.901C161.91 167.901 163.19 168.27 164.849 166.708C166.509 165.146 166.168 164.259 166.168 164.259L147.834 141.014L159.875 116.705L159.996 114.38L142.229 112.029L141.942 113.889H141.943Z" fill="#2D2B72"/>
<path fill-rule="evenodd" clip-rule="evenodd" d="M150.12 158.178C151.419 159.282 152.746 160.395 154.021 161.453C154.053 159.391 154.707 152.655 154.807 149.854L149.563 143.204C148.961 144.671 149.791 153.922 150.121 158.178" fill="#12143C"/>
<path fill-rule="evenodd" clip-rule="evenodd" d="M141.107 118.463L140.435 122.133C144.074 123.322 150.41 124.152 156.265 123.995L159.875 116.705L159.884 116.528L158.48 116.461L141.541 118.235L141.106 118.463H141.107Z" fill="#031542"/>
<path fill-rule="evenodd" clip-rule="evenodd" d="M159.948 166.317C160.316 166.616 160.641 166.878 160.915 167.099C162.341 166.284 163.881 165.165 165.287 163.142L164.576 162.24C163.221 164.213 161.509 165.404 159.948 166.316" fill="#4C49A0"/>
<path fill-rule="evenodd" clip-rule="evenodd" d="M147.835 141.014L158.506 124.398L151.321 124.096L147.835 141.014Z" fill="#12143C"/>
<path fill-rule="evenodd" clip-rule="evenodd" d="M151.045 116.351L150.212 146.875L152.084 173.811C152.084 173.811 154.627 174.348 156.371 174.247C158.114 174.146 158.121 173.89 158.121 173.89L161.658 144.719C161.658 144.719 166.36 133.444 165.686 123.086C165.393 118.588 165.772 115.104 165.153 113.549C164.534 111.995 161.445 112.619 161.445 112.619L151.045 116.351Z" fill="#2D2B72"/>
<path fill-rule="evenodd" clip-rule="evenodd" d="M151.02 117.243L150.839 123.88C156.169 124.234 161.905 123.93 165.651 122.494C165.533 120.294 165.564 118.356 165.536 116.795L158.482 116.463L151.02 117.244V117.243Z" fill="#12143C"/>
<path fill-rule="evenodd" clip-rule="evenodd" d="M151.897 171.131L151.974 172.237C154.034 172.439 156.545 172.582 158.318 172.264L158.456 171.128C156.827 171.526 154.087 171.355 151.897 171.131Z" fill="#4C49A0"/>
<mask id="mask0_40_6874" style="mask-type:luminance" maskUnits="userSpaceOnUse" x="133" y="71" width="5" height="13">
<path d="M137.192 71.5439L136.692 71.2966L133.271 72.2255L133.331 83.3346L137.278 82.6432L137.192 71.5439Z" fill="white"/>
</mask>
<g mask="url(#mask0_40_6874)">
<path d="M137.278 71.2966H133.271V83.3333H137.278V71.2966Z" fill="url(#paint0_linear_40_6874)"/>
</g>
<path d="M149.368 93.2404C147.104 98.2081 143.49 104.363 137.012 105.328C131.215 106.191 133.094 88.4855 133.716 86.9034C134.39 85.1848 136.689 85.448 137.593 86.7017C138.188 90.0947 138.479 94.7081 139.269 94.6527C140.017 94.5998 143.595 86.4765 148.188 84.8095C148.733 84.4589 150.964 90.8402 149.369 93.2404" fill="#FCA700"/>
<path fill-rule="evenodd" clip-rule="evenodd" d="M138.024 88.8977C138.024 88.8977 136.826 89.7318 135.132 89.3996C133.437 89.0662 133.158 88.8165 133.158 88.8165C133.158 88.8165 133.318 87.0732 133.709 86.4003C134.101 85.7274 136.533 85.5022 137.366 86.0165C138.199 86.5307 138.025 88.8977 138.025 88.8977" fill="#EF8200"/>
<path d="M148.294 95.4573C145.997 99.885 142.551 104.503 137.013 105.328C136.822 105.356 136.64 105.363 136.465 105.352C141.392 102.537 143.913 98.8011 145.767 93.2921L148.295 95.4573H148.294Z" fill="#EF8200"/>
<path d="M168.084 87.3032C170.242 90.5203 163.131 102.466 165.98 121.126C158.602 123.367 146.636 123.105 140.609 121.185C141.075 114.904 143.974 90.3911 148.187 84.8107C155.367 82.7993 164.874 83.8007 168.084 87.3032Z" fill="#FCA700"/>
<path fill-rule="evenodd" clip-rule="evenodd" d="M166.77 98.9413C165.778 104.568 165.157 113.644 165.981 121.125C160.729 122.719 153.153 123.047 147.049 122.409C148.154 122.434 147.45 122.477 150.545 122.418C153.64 122.36 161.015 121.006 162.266 118.64C163.509 116.288 164.264 103.224 165.249 97.0123L166.771 98.9389L166.77 98.9413Z" fill="#EF8200"/>
<path d="M151.696 84.0936C154.067 83.5806 157.186 83.2927 160.385 84.0678C161.021 85.8652 159.579 89.3984 154.962 89.6826C151.205 89.9139 149.828 85.7987 151.696 84.0936Z" fill="#EF8200"/>
<path fill-rule="evenodd" clip-rule="evenodd" d="M150.043 79.1553C150.753 80.5677 151.747 81.6564 152.856 82.1879L152.818 84.2412L152.519 84.4958C151.349 85.7494 152.559 87.5247 154.557 88.2419C157.404 88.2924 159.901 85.6473 158.889 84.1477L158.45 83.658L158.352 80.7534C158.526 80.7436 159.791 80.0239 160.168 79.9095C160.545 79.7938 161.097 79.068 161.134 78.3016C161.171 77.5351 159.987 77.7836 159.987 77.7836C161.421 75.8214 163.045 74.2196 160.94 72.453C158.835 70.6863 153.999 69.6554 153.999 69.6554L151.088 68.6466C151.458 69.6505 151.196 72.7544 150.449 74.847C149.779 76.7232 149.091 77.2608 150.043 79.1578" fill="#F4B1B1"/>
<path fill-rule="evenodd" clip-rule="evenodd" d="M156.981 81.1558C156.981 81.1558 155.334 83.9792 153.982 84.2351C152.63 84.491 153.322 84.3015 152.817 84.2412L152.856 82.1879C153.787 82.338 154.698 82.2642 156.981 81.1545" fill="#E06B6C"/>
<path d="M163.807 92.6438C163.973 89.1142 165.473 84.5512 168.255 87.2848C173.857 92.7902 179.668 104.812 178.484 108.364C177.254 111.93 169.94 124.602 167.413 122.717C165.996 121.66 164.28 121.15 165.838 119.013C167.649 116.125 170.576 108.278 170.762 107.392C171.402 102.631 163.601 97.0284 163.807 92.6438Z" fill="#FCA700"/>
<path fill-rule="evenodd" clip-rule="evenodd" d="M170.786 121.274C169.648 123.001 168.026 123.482 166.354 122.776C164.775 122.111 164.862 119.985 165.271 119.274C165.68 118.563 166.135 118.023 166.135 118.023C166.135 118.023 167.184 117.481 168.487 118.046C169.79 118.611 170.852 120.478 170.786 121.274Z" fill="#EF8200"/>
<path fill-rule="evenodd" clip-rule="evenodd" d="M165.489 120.351L164.453 121.381C163.478 121.677 162.561 122.193 161.512 122.453C160.985 122.583 160.492 122.69 160.135 122.668C159.617 122.635 159.877 123.231 160.156 123.397C160.947 123.867 161.835 123.72 161.833 123.786C161.803 124.081 161.336 124.578 161.389 124.639C162.704 126.147 164.678 126.555 165.215 126.322C165.626 126.143 165.88 124.383 167.985 122.867C168.909 122.023 166.273 120.316 165.49 120.351" fill="#F4B1B1"/>
<path fill-rule="evenodd" clip-rule="evenodd" d="M137.085 83.663C137.176 82.9888 137.649 81.7585 137.606 81.5433C137.553 81.2824 136.303 82.0415 136.155 82.0833C136.027 82.1202 136.657 79.7114 136.558 79.875C136.433 79.4088 135.395 81.0745 135.31 81.28C135.143 80.9466 135.348 78.8023 135.147 78.6091C134.961 78.4307 134.506 80.2466 134.335 80.1851C134.032 80.0768 134.235 77.9313 133.836 77.6348C133.08 77.358 132.525 82.4499 133.491 83.7294C134.539 85.1183 133.969 85.5366 134.089 86.7718C134.565 87.0892 136.246 87.4583 137.094 86.5688C136.999 85.7076 136.973 84.4934 137.085 83.663Z" fill="#F4B1B1"/>
<path fill-rule="evenodd" clip-rule="evenodd" d="M134.065 72.3694L133.556 72.4617V74.1212L134.065 74.029V72.3694Z" fill="white"/>
<path fill-rule="evenodd" clip-rule="evenodd" d="M160.781 123.657C161.654 125.109 163.3 126.018 165.576 126.36C165.617 126.622 165.442 126.963 165.469 127.233C163.006 127.238 159.609 125.579 159.059 123.487L160.781 123.657Z" fill="#12143C"/>
<path fill-rule="evenodd" clip-rule="evenodd" d="M151.433 73.1062C153.858 74.3488 156.65 72.875 158.062 74.5382C158.761 75.3625 158.691 76.5497 157.908 78.3828C157.677 78.9228 157.369 79.3214 158.282 78.8982C158.702 78.7038 159.391 78.4332 159.627 78.6239C160.151 79.0471 159.886 79.939 159.468 80.2257C159.281 80.3536 158.928 80.5443 158.928 80.5443C162.189 79.9255 163.549 76.9827 163.502 74.6145C163.486 73.8112 163.33 73.4962 162.779 72.8774C163.807 62.5606 144.704 65.8035 150.854 72.6904C151.029 72.843 151.221 72.9832 151.433 73.1062Z" fill="#1F3E7A"/>
<path d="M109.165 133.672H50.0098V141.226H109.165V133.672Z" fill="#C8ECFD"/>
<path d="M86.8789 133.672H50.0098V141.226H86.8789V133.672Z" fill="#5EC1CF"/>
<path fill-rule="evenodd" clip-rule="evenodd" d="M51.4947 151.189H107.681C108.497 151.189 109.166 151.857 109.166 152.673C109.166 153.49 108.498 154.158 107.681 154.158H51.4947C50.679 154.158 50.0098 153.49 50.0098 152.673C50.0098 151.857 50.6778 151.189 51.4947 151.189Z" fill="#9CC1F4"/>
<path fill-rule="evenodd" clip-rule="evenodd" d="M51.4947 159.003H91.5858C92.4027 159.003 93.0707 159.671 93.0707 160.488C93.0707 161.305 92.4027 161.973 91.5858 161.973H51.4947C50.6778 161.973 50.0098 161.305 50.0098 160.488C50.0098 159.671 50.6778 159.003 51.4947 159.003Z" fill="#9CC1F4"/>
</g>
</g>
<defs>
<linearGradient id="paint0_linear_40_6874" x1="135.276" y1="79.3449" x2="135.276" y2="71.9179" gradientUnits="userSpaceOnUse">
<stop stop-color="#000446"/>
<stop offset="1" stop-color="#03096B"/>
</linearGradient>
<clipPath id="clip0_40_6874">
<rect width="207" height="200" fill="white"/>
</clipPath>
<clipPath id="clip1_40_6874">
<rect width="148.64" height="164" fill="white" transform="translate(30 18)"/>
</clipPath>
</defs>
</svg>
