<svg width="208" height="200" viewBox="0 0 208 200" fill="none" xmlns="http://www.w3.org/2000/svg">
<g clip-path="url(#clip0_83_5)">
<path opacity="0.6" d="M167.673 144.157C194.882 117.065 194.882 73.1412 167.673 46.0497C140.464 18.9582 96.3484 18.9582 69.139 46.0497C41.9296 73.1412 41.9296 117.065 69.139 144.157C96.3484 171.248 140.464 171.248 167.673 144.157Z" fill="#CBCFFF"/>
<path opacity="0.3" d="M203.401 127.442C210.029 141.997 203.562 159.14 188.943 165.748C174.325 172.347 157.107 165.908 150.471 151.353C143.843 136.797 150.31 119.654 164.929 113.047C179.547 106.448 196.765 112.887 203.401 127.442Z" fill="#DA97B8"/>
<path opacity="0.3" d="M75.8617 19.5618C82.4896 34.1172 76.0225 51.2601 61.4037 57.8677C46.785 64.4754 29.5675 58.0279 22.9311 43.4724C16.3031 28.917 22.7703 11.7742 37.389 5.1665C52.0078 -1.44117 69.2252 5.00636 75.8617 19.5618Z" fill="#DA97B8"/>
<path d="M129.376 104.72C144.825 138.626 129.749 178.584 95.6949 193.965C61.6409 209.347 21.5092 194.336 6.06089 160.43C-9.38742 126.523 5.68844 86.5739 39.7424 71.1841C73.7964 55.8028 113.928 70.8133 129.376 104.72Z" fill="#CAE1FC"/>
<path d="M35.4928 156.3C35.4928 162.739 30.2531 167.956 23.786 167.956C17.3188 167.956 12.0791 162.739 12.0791 156.3C12.0791 149.861 17.3188 144.644 23.786 144.644C30.2531 144.644 35.4928 149.861 35.4928 156.3Z" fill="#BFD4F8"/>
<path d="M126.972 7.30721C126.972 11.3443 123.688 14.6144 119.633 14.6144C115.579 14.6144 112.294 11.3443 112.294 7.30721C112.294 3.27012 115.579 0 119.633 0C123.688 0 126.972 3.27012 126.972 7.30721Z" fill="#BFD4F8"/>
<path d="M185.989 162.234C185.989 162.588 185.761 162.874 185.473 162.874C185.185 162.874 184.957 162.588 184.957 162.234V160.169C184.957 159.815 185.194 159.528 185.473 159.528C185.752 159.528 185.989 159.815 185.989 160.169V162.234Z" fill="#2E3054"/>
<path d="M185.989 154.117C185.989 154.471 185.761 154.758 185.473 154.758C185.185 154.758 184.957 154.471 184.957 154.117V152.052C184.957 151.698 185.194 151.42 185.473 151.42C185.752 151.42 185.989 151.707 185.989 152.052V154.117Z" fill="#2E3054"/>
<path d="M190.162 159.233C190.467 159.41 190.603 159.756 190.459 160C190.315 160.244 189.951 160.303 189.646 160.135L187.851 159.098C187.547 158.921 187.411 158.576 187.555 158.331C187.699 158.087 188.063 158.028 188.368 158.205L190.171 159.241L190.162 159.233Z" fill="#2E3054"/>
<path d="M183.103 155.179C183.408 155.356 183.543 155.702 183.399 155.946C183.255 156.19 182.891 156.249 182.586 156.072L180.792 155.036C180.487 154.859 180.352 154.513 180.496 154.269C180.64 154.024 181.004 153.965 181.308 154.142L183.103 155.179Z" fill="#2E3054"/>
<path d="M189.637 154.142C189.942 153.965 190.306 154.024 190.45 154.269C190.594 154.513 190.458 154.859 190.154 155.036L188.351 156.072C188.046 156.249 187.682 156.19 187.538 155.946C187.394 155.702 187.53 155.356 187.834 155.179L189.629 154.142H189.637Z" fill="#2E3054"/>
<path d="M182.586 158.205C182.891 158.028 183.255 158.087 183.399 158.331C183.543 158.576 183.407 158.921 183.103 159.098L181.308 160.135C181.003 160.312 180.639 160.253 180.496 160.008C180.352 159.764 180.479 159.418 180.792 159.241L182.586 158.205Z" fill="#2E3054"/>
</g>
<g clip-path="url(#clip1_83_5)">
<path d="M206.098 185H3.90196C2.85409 185 2 184.148 2 183.103C2 182.057 2.85409 181.205 3.90196 181.205H206.091C207.139 181.205 207.993 182.057 207.993 183.103C207.993 184.148 207.139 185 206.091 185H206.098Z" fill="#D1CDCD"/>
<path d="M176.284 43.3452H33.9459C31.1712 43.3452 28.9219 45.5891 28.9219 48.357V144.011C28.9219 146.779 31.1712 149.022 33.9459 149.022H176.284C179.059 149.022 181.308 146.779 181.308 144.011V48.357C181.308 45.5891 179.059 43.3452 176.284 43.3452Z" fill="#1E1E1E"/>
<path d="M175.696 49.6315H34.5415V137.553H175.696V49.6315Z" fill="#FFA64D"/>
<path d="M204.196 181.835H6.2202C3.34214 181.807 1.63397 177.912 3.15553 175.556L27.9312 145.092C28.7997 143.782 30.0485 142.586 32.2734 142.643H177.719C180.109 142.643 180.841 143.538 182.062 145.092L206.974 175.234C208.739 177.618 206.809 182.057 204.203 181.835H204.196Z" fill="white"/>
<path d="M203.945 179.559H5.96185C3.08379 179.53 1.40432 177.747 2.92589 175.392L27.6729 142.815C28.5413 141.505 29.7902 140.309 32.0151 140.366H177.461C179.851 140.366 180.583 141.261 181.803 142.815L206.744 175.148C208.402 177.532 206.557 179.781 203.952 179.559H203.945Z" fill="#F4F2F2"/>
<path d="M185.463 166.027H24.7372C23.5673 166.027 22.1103 165.325 23.0075 163.728L34.0675 148.314C34.936 147.046 35.8906 146.545 37.0604 146.545H172.293C173.463 146.545 174.518 147.34 175.286 148.314L187.179 163.757C188.176 165.49 186.626 166.034 185.456 166.034L185.463 166.027Z" fill="#D1CDCD"/>
<path d="M53.8554 149.917H37.5201C37.3622 149.917 37.3334 149.774 37.4555 149.602L38.489 148.12C38.611 147.948 38.8335 147.805 38.9914 147.805H54.9822C55.1401 147.805 55.1903 147.948 55.097 148.12L54.3075 149.602C54.2142 149.774 54.0061 149.917 53.8482 149.917H53.8554Z" fill="#1E1E1E"/>
<path d="M63.9176 149.917H56.2595C56.1016 149.917 56.0442 149.774 56.1303 149.602L56.8911 148.12C56.9773 147.948 57.1782 147.805 57.3361 147.805H64.8363C64.9942 147.805 65.0588 147.948 64.987 148.12L64.3482 149.602C64.2765 149.774 64.0827 149.917 63.9248 149.917H63.9176Z" fill="#1E1E1E"/>
<path d="M73.9801 149.917H66.322C66.1641 149.917 66.0923 149.774 66.1641 149.602L66.7742 148.12C66.8459 147.948 67.0326 147.805 67.1905 147.805H74.6906C74.8485 147.805 74.9275 147.948 74.8701 148.12L74.382 149.602C74.3246 149.774 74.1452 149.917 73.9873 149.917H73.9801Z" fill="#1E1E1E"/>
<path d="M84.0495 149.917H76.3915C76.2336 149.917 76.1474 149.774 76.2049 149.602L76.6714 148.12C76.7288 147.948 76.8939 147.805 77.0518 147.805H84.5519C84.7098 147.805 84.8031 147.948 84.7601 148.12L84.4156 149.602C84.3725 149.774 84.2146 149.917 84.0495 149.917Z" fill="#1E1E1E"/>
<path d="M94.112 149.917H86.4539C86.296 149.917 86.1955 149.774 86.2314 149.602L86.5472 148.12C86.5831 147.948 86.741 147.805 86.8989 147.805H94.3991C94.557 147.805 94.6646 147.948 94.6431 148.12L94.4493 149.602C94.4278 149.774 94.277 149.917 94.1191 149.917H94.112Z" fill="#1E1E1E"/>
<path d="M104.175 149.917H96.5165C96.3586 149.917 96.2438 149.774 96.2653 149.602L96.4304 148.12C96.4519 147.948 96.5954 147.805 96.7462 147.805H104.246C104.404 147.805 104.526 147.948 104.519 148.12L104.476 149.602C104.476 149.774 104.332 149.917 104.175 149.917Z" fill="#1E1E1E"/>
<path d="M114.237 149.917H106.579C106.421 149.917 106.292 149.774 106.292 149.602L106.314 148.12C106.314 147.948 106.443 147.805 106.601 147.805H114.101C114.259 147.805 114.395 147.948 114.402 148.12L114.503 149.602C114.517 149.774 114.395 149.917 114.237 149.917Z" fill="#1E1E1E"/>
<path d="M124.3 149.917H116.642C116.484 149.917 116.34 149.774 116.326 149.602L116.197 148.12C116.182 147.948 116.297 147.805 116.455 147.805H123.955C124.113 147.805 124.264 147.948 124.292 148.12L124.544 149.602C124.572 149.774 124.465 149.917 124.307 149.917H124.3Z" fill="#1E1E1E"/>
<path d="M134.362 149.917H126.704C126.546 149.917 126.388 149.774 126.352 149.602L126.072 148.12C126.044 147.948 126.144 147.805 126.295 147.805H133.795C133.953 147.805 134.118 147.948 134.161 148.12L134.556 149.602C134.606 149.774 134.513 149.917 134.355 149.917H134.362Z" fill="#1E1E1E"/>
<path d="M144.424 149.917H136.766C136.609 149.917 136.436 149.774 136.386 149.602L135.963 148.12C135.912 147.948 135.998 147.805 136.156 147.805H143.657C143.814 147.805 143.994 147.948 144.058 148.12L144.604 149.602C144.669 149.774 144.59 149.917 144.432 149.917H144.424Z" fill="#1E1E1E"/>
<path d="M154.494 149.917H146.836C146.678 149.917 146.491 149.774 146.427 149.602L145.852 148.12C145.788 147.948 145.852 147.805 146.01 147.805H153.511C153.668 147.805 153.862 147.948 153.941 148.12L154.637 149.602C154.716 149.774 154.659 149.917 154.494 149.917Z" fill="#1E1E1E"/>
<path d="M173.987 149.917H156.899C156.741 149.917 156.54 149.774 156.454 149.602L155.736 148.12C155.65 147.948 155.707 147.805 155.865 147.805H172.164C172.322 147.805 172.545 147.948 172.66 148.12L174.074 149.602C174.188 149.774 174.153 149.917 173.995 149.917H173.987Z" fill="#1E1E1E"/>
<path d="M48.3074 155.244H33.3716C33.2424 155.244 33.2209 155.137 33.3142 155.008L35.6324 151.779C35.7257 151.65 35.898 151.543 36.02 151.543H50.4174C50.5395 151.543 50.5753 151.65 50.5036 151.779L48.659 155.008C48.5873 155.137 48.4222 155.244 48.293 155.244H48.3074Z" fill="#1E1E1E"/>
<path d="M59.4246 155.266H50.8622C50.733 155.266 50.6828 155.158 50.7545 155.037L52.5345 151.793C52.6063 151.664 52.7642 151.564 52.8862 151.564H61.1399C61.262 151.564 61.3194 151.672 61.262 151.793L59.7619 155.037C59.7045 155.166 59.5466 155.266 59.4174 155.266H59.4246Z" fill="#1E1E1E"/>
<path d="M70.5566 155.287H61.9942C61.865 155.287 61.8076 155.18 61.865 155.058L63.3005 151.815C63.3579 151.686 63.5014 151.586 63.6306 151.586H71.8916C72.0136 151.586 72.0782 151.693 72.0351 151.815L70.8868 155.058C70.8437 155.187 70.7002 155.287 70.571 155.287H70.5566Z" fill="#1E1E1E"/>
<path d="M81.6882 155.302H73.1187C72.9895 155.302 72.9177 155.194 72.9608 155.072L74.0445 151.829C74.0876 151.7 74.2239 151.6 74.346 151.6H82.6069C82.7289 151.6 82.8079 151.707 82.7792 151.829L81.9753 155.072C81.9466 155.201 81.8102 155.302 81.6811 155.302H81.6882Z" fill="#1E1E1E"/>
<path d="M92.8203 155.323H84.2507C84.1216 155.323 84.0426 155.216 84.0713 155.094L84.8106 151.851C84.8393 151.722 84.9613 151.621 85.0905 151.621H93.3514C93.4734 151.621 93.5596 151.729 93.5452 151.851L93.0931 155.094C93.0715 155.223 92.9567 155.323 92.8275 155.323H92.8203Z" fill="#1E1E1E"/>
<path d="M103.967 155.337H95.3971C95.2679 155.337 95.1746 155.23 95.189 155.108L95.5765 151.865C95.5909 151.736 95.7057 151.636 95.8277 151.636H104.089C104.211 151.636 104.311 151.743 104.304 151.865L104.196 155.108C104.196 155.237 104.082 155.337 103.952 155.337H103.967Z" fill="#1E1E1E"/>
<path d="M115.113 155.359H106.543C106.414 155.359 106.306 155.251 106.313 155.13L106.356 151.886C106.356 151.757 106.464 151.657 106.586 151.657H114.854C114.976 151.657 115.091 151.765 115.098 151.886L115.342 155.13C115.349 155.259 115.256 155.359 115.127 155.359H115.113Z" fill="#1E1E1E"/>
<path d="M126.259 155.38H117.689C117.56 155.38 117.445 155.273 117.431 155.151L117.122 151.908C117.108 151.779 117.201 151.679 117.33 151.679H125.598C125.72 151.679 125.842 151.786 125.864 151.908L126.452 155.151C126.474 155.28 126.388 155.38 126.259 155.38Z" fill="#1E1E1E"/>
<path d="M137.412 155.395H128.836C128.706 155.395 128.577 155.287 128.556 155.166L127.903 151.922C127.874 151.793 127.96 151.693 128.082 151.693H136.35C136.472 151.693 136.608 151.801 136.644 151.922L137.585 155.166C137.62 155.294 137.549 155.395 137.419 155.395H137.412Z" fill="#1E1E1E"/>
<path d="M148.566 155.416H139.989C139.86 155.416 139.723 155.309 139.68 155.187L138.675 151.944C138.639 151.815 138.704 151.715 138.833 151.715H147.101C147.223 151.715 147.367 151.822 147.417 151.944L148.702 155.187C148.752 155.316 148.688 155.416 148.558 155.416H148.566Z" fill="#1E1E1E"/>
<path d="M159.733 155.43H151.157C151.027 155.43 150.877 155.323 150.827 155.201L149.477 151.958C149.427 151.829 149.477 151.729 149.606 151.729H157.875C157.997 151.729 158.154 151.836 158.219 151.958L159.855 155.201C159.92 155.33 159.87 155.43 159.741 155.43H159.733Z" fill="#1E1E1E"/>
<path d="M178.107 155.452H162.31C162.181 155.452 162.023 155.345 161.958 155.216L160.264 151.987C160.2 151.858 160.243 151.75 160.365 151.75H175.178C175.301 151.75 175.473 151.858 175.559 151.987L178.179 155.216C178.265 155.345 178.236 155.452 178.114 155.452H178.107Z" fill="#1E1E1E"/>
<path d="M35.3883 164.308H26.0436C25.9072 164.308 25.8785 164.201 25.9718 164.072L28.4121 160.843C28.5126 160.714 28.6992 160.607 28.8283 160.607H37.8501C37.9793 160.607 38.0223 160.714 37.9362 160.843L35.7902 164.072C35.7041 164.201 35.5175 164.308 35.3811 164.308H35.3883Z" fill="#1E1E1E"/>
<path d="M47.5035 164.323H38.1731C38.0296 164.323 37.9865 164.215 38.0654 164.094L40.1468 160.85C40.2258 160.721 40.4052 160.621 40.5416 160.621H49.5561C49.6925 160.621 49.7427 160.729 49.6782 160.85L47.891 164.094C47.8193 164.223 47.647 164.323 47.5035 164.323Z" fill="#1E1E1E"/>
<path d="M59.6329 164.344H50.2953C50.1518 164.344 50.0944 164.237 50.1662 164.115L51.8887 160.872C51.9533 160.743 52.1183 160.643 52.2547 160.643H61.2693C61.4057 160.643 61.4702 160.75 61.4128 160.872L59.9846 164.115C59.9271 164.244 59.7692 164.344 59.6257 164.344H59.6329Z" fill="#1E1E1E"/>
<path d="M71.7696 164.359H62.4321C62.2886 164.359 62.224 164.251 62.2742 164.129L63.6307 160.886C63.6809 160.757 63.8388 160.657 63.9752 160.657H72.9898C73.1261 160.657 73.2051 160.764 73.162 160.886L72.0998 164.129C72.0567 164.258 71.906 164.359 71.7696 164.359Z" fill="#1E1E1E"/>
<path d="M132.474 164.38H74.5688C74.4252 164.38 74.3463 164.273 74.3821 164.151L75.3798 160.908C75.4157 160.779 75.5592 160.678 75.6956 160.678H131.62C131.757 160.678 131.893 160.786 131.922 160.908L132.675 164.151C132.704 164.28 132.611 164.38 132.474 164.38Z" fill="#1E1E1E"/>
<path d="M144.654 164.473H135.309C135.166 164.473 135.029 164.366 134.994 164.244L134.175 161.001C134.147 160.872 134.226 160.772 134.362 160.772H143.391C143.527 160.772 143.671 160.879 143.714 161.001L144.826 164.244C144.869 164.373 144.79 164.473 144.654 164.473Z" fill="#1E1E1E"/>
<path d="M156.812 164.495H147.467C147.324 164.495 147.173 164.387 147.123 164.265L145.939 161.022C145.896 160.893 145.967 160.793 146.104 160.793H155.133C155.269 160.793 155.427 160.9 155.484 161.022L156.963 164.265C157.02 164.394 156.956 164.495 156.812 164.495Z" fill="#1E1E1E"/>
<path d="M184.186 164.509H159.626C159.49 164.509 159.324 164.402 159.26 164.273L157.717 161.044C157.652 160.915 157.717 160.807 157.846 160.807H181.567C181.696 160.807 181.882 160.915 181.976 161.044L184.265 164.273C184.359 164.402 184.323 164.509 184.186 164.509Z" fill="#1E1E1E"/>
<path d="M53.9699 159.776H29.6536C29.5244 159.776 29.4957 159.669 29.589 159.54L31.9718 156.311C32.0651 156.182 32.2517 156.075 32.3737 156.075H55.8432C55.9723 156.075 56.0226 156.182 55.958 156.311L54.3288 159.54C54.2642 159.669 54.0991 159.776 53.9699 159.776Z" fill="#1E1E1E"/>
<path d="M64.7503 159.812H55.8076C55.6712 159.812 55.6138 159.705 55.6784 159.583L57.2717 156.34C57.3363 156.211 57.4942 156.111 57.6234 156.111H66.2576C66.3867 156.111 66.4513 156.218 66.4011 156.34L65.0949 159.583C65.0446 159.712 64.8939 159.812 64.7575 159.812H64.7503Z" fill="#1E1E1E"/>
<path d="M76.3773 159.834H67.4274C67.291 159.834 67.2192 159.726 67.2695 159.605L68.504 156.361C68.5542 156.232 68.6977 156.132 68.8269 156.132H77.4611C77.5903 156.132 77.6692 156.239 77.6333 156.361L76.686 159.605C76.6501 159.733 76.5065 159.834 76.3702 159.834H76.3773Z" fill="#1E1E1E"/>
<path d="M88.0116 159.848H79.0616C78.9252 159.848 78.8463 159.741 78.8822 159.619L79.765 156.375C79.8009 156.247 79.9372 156.146 80.0664 156.146H88.7006C88.8298 156.146 88.9159 156.254 88.8944 156.375L88.3058 159.619C88.2843 159.748 88.1551 159.848 88.0188 159.848H88.0116Z" fill="#1E1E1E"/>
<path d="M99.6456 159.869H90.6956C90.5592 159.869 90.4659 159.762 90.4875 159.64L91.0114 156.397C91.0329 156.268 91.1549 156.168 91.2841 156.168H99.9255C100.055 156.168 100.155 156.275 100.148 156.397L99.9111 159.64C99.904 159.769 99.7819 159.869 99.6456 159.869Z" fill="#1E1E1E"/>
<path d="M111.287 159.891H102.337C102.201 159.891 102.101 159.784 102.108 159.662L102.28 156.418C102.28 156.29 102.395 156.189 102.531 156.189H111.173C111.302 156.189 111.409 156.297 111.417 156.418L111.539 159.662C111.539 159.791 111.438 159.891 111.302 159.891H111.287Z" fill="#1E1E1E"/>
<path d="M122.929 159.905H113.972C113.835 159.905 113.721 159.798 113.713 159.676L113.527 156.433C113.52 156.304 113.62 156.204 113.749 156.204H122.391C122.52 156.204 122.642 156.311 122.663 156.433L123.137 159.676C123.159 159.805 123.058 159.905 122.929 159.905Z" fill="#1E1E1E"/>
<path d="M134.577 159.927H125.62C125.484 159.927 125.354 159.819 125.333 159.698L124.787 156.454C124.766 156.325 124.852 156.225 124.988 156.225H133.63C133.759 156.225 133.895 156.332 133.924 156.454L134.757 159.698C134.792 159.826 134.706 159.927 134.57 159.927H134.577Z" fill="#1E1E1E"/>
<path d="M146.233 159.941H137.276C137.14 159.941 137.003 159.834 136.967 159.712L136.07 156.469C136.034 156.34 136.113 156.24 136.242 156.24H144.884C145.013 156.24 145.157 156.347 145.207 156.469L146.391 159.712C146.441 159.841 146.369 159.941 146.233 159.941Z" fill="#1E1E1E"/>
<path d="M157.889 159.963H148.932C148.795 159.963 148.645 159.855 148.594 159.733L147.338 156.49C147.288 156.361 147.353 156.261 147.489 156.261H156.137C156.267 156.261 156.425 156.368 156.482 156.49L158.025 159.733C158.083 159.862 158.025 159.963 157.889 159.963Z" fill="#1E1E1E"/>
<path d="M163.803 159.984C163.724 159.984 163.631 159.877 163.588 159.748L161.757 156.519C161.722 156.39 161.75 156.282 161.829 156.282H173.514C173.593 156.282 173.693 156.39 173.751 156.519L176.22 159.748C176.277 159.877 176.255 159.984 176.176 159.984H163.803Z" fill="#1E1E1E"/>
<path d="M45.8805 146.856L44.144 150.103L45.6765 150.918L47.413 147.671L45.8805 146.856Z" fill="#D1CDCD"/>
<path d="M164.888 146.809L163.355 147.625L165.091 150.872L166.624 150.057L164.888 146.809Z" fill="#D1CDCD"/>
<path d="M154.243 139.028H55.9868V142.493H154.243V139.028Z" fill="#1E1E1E"/>
<path d="M131.922 175.986H78.0857C77.368 175.986 76.7866 175.399 76.7866 174.69L79.8226 168.912C80.0738 168.16 80.8417 167.616 81.5595 167.616H128.448C129.166 167.616 129.604 168.046 130.185 168.912L133.221 174.69C133.221 175.406 132.632 175.986 131.922 175.986Z" fill="#D1CDCD"/>
<path d="M123.546 15H70.2192C68.1091 15 66.3794 16.7255 66.3794 18.8304V108.9C66.3794 111.004 68.1091 112.73 70.2192 112.73H139.759C141.869 112.73 143.599 111.004 143.599 108.9V35.0114L123.546 15Z" fill="white"/>
<path d="M129.13 35.2047C129.13 35.2047 123.919 35.3837 123.388 29.3552L123.539 15L143.621 35.04L129.13 35.2047Z" fill="#E5E4E3"/>
<path d="M133.372 62.1108H76.6216V65.6263H133.372V62.1108Z" fill="#E5E4E3"/>
<path d="M133.372 49.9751H76.6216V53.4905H133.372V49.9751Z" fill="#E5E4E3"/>
<path d="M133.372 74.2394H76.6216V77.7548H133.372V74.2394Z" fill="#E5E4E3"/>
<path d="M133.601 119.489C141.747 119.489 148.35 112.901 148.35 104.776C148.35 96.6497 141.747 90.0624 133.601 90.0624C125.455 90.0624 118.852 96.6497 118.852 104.776C118.852 112.901 125.455 119.489 133.601 119.489Z" fill="#FF5E5A"/>
<path d="M141.468 105.148H137.204V96.8784C137.204 96.6707 137.011 96.4989 136.774 96.4989H130.436C130.199 96.4989 130.006 96.6707 130.006 96.8784V105.148H125.742C125.319 105.148 125.211 105.406 125.491 105.713L133.085 114.004C133.372 114.312 133.838 114.312 134.118 114.004L141.712 105.713C141.999 105.406 141.884 105.148 141.46 105.148H141.468Z" fill="white"/>
</g>
<defs>
<clipPath id="clip0_83_5">
<rect width="206" height="200" fill="white"/>
</clipPath>
<clipPath id="clip1_83_5">
<rect width="206" height="170" fill="white" transform="translate(2 15)"/>
</clipPath>
</defs>
</svg>
