<svg width="210" height="219" viewBox="0 0 210 219" fill="none" xmlns="http://www.w3.org/2000/svg">
<g clip-path="url(#clip0_40_96)">
<path opacity="0.6" d="M171.559 145.295C198.848 117.99 198.848 73.7193 171.559 46.4141C144.27 19.1089 100.025 19.1089 72.7361 46.4141C45.447 73.7193 45.447 117.99 72.7361 145.295C100.025 172.6 144.27 172.6 171.559 145.295Z" fill="#CBCFFF"/>
<path opacity="0.3" d="M207.394 128.447C214.041 143.117 207.555 160.396 192.893 167.055C178.232 173.707 160.964 167.217 154.308 152.547C147.66 137.876 154.147 120.598 168.808 113.938C183.47 107.287 200.738 113.777 207.394 128.447Z" fill="#DA97B8"/>
<path opacity="0.3" d="M79.4801 19.7161C86.1275 34.3863 79.6414 51.6644 64.9798 58.3241C50.3181 64.9839 33.0502 58.4855 26.3943 43.8153C19.7469 29.1451 26.233 11.867 40.8946 5.20723C55.5562 -1.45256 72.8242 5.04583 79.4801 19.7161Z" fill="#DA97B8"/>
<path d="M133.16 105.546C148.654 139.72 133.534 179.993 99.3799 195.495C65.226 210.998 24.9766 195.869 9.48298 161.695C-6.01063 127.521 9.10943 87.2568 43.2633 71.7456C77.4172 56.2429 117.667 71.3718 133.16 105.546Z" fill="#CAE1FC"/>
<path d="M121.716 35.6179C125.418 26.3588 130.707 19.1298 134.782 25.0591C138.857 30.9883 119.178 61.586 119.178 61.586C119.178 61.586 118.015 44.8855 121.716 35.6179Z" fill="#ECB49F"/>
<path d="M69.3265 199.029H97.0962C96.417 195.453 97.6055 165.917 103.183 157.337C109.695 147.331 117.565 133.748 120.545 120.411C123.533 107.066 72.5271 93.7296 58.689 124.939C44.8509 156.148 60.8623 182.354 60.8623 182.354L69.3265 199.029Z" fill="#ECB49F"/>
<g style="mix-blend-mode:multiply">
<path d="M60.2764 111.11C60.2764 111.11 79.7856 126.57 68.8509 156.641C68.8509 156.641 83.6059 125.78 60.2764 111.11Z" fill="#DA905E"/>
</g>
<path d="M123.983 131.913C123.983 133.179 122.973 134.207 121.725 134.207H56.142C54.8941 134.207 53.8838 133.179 53.8838 131.913V21.1601C53.8838 19.8944 54.8941 18.8666 56.142 18.8666H121.725C122.973 18.8666 123.983 19.8944 123.983 21.1601V131.922V131.913Z" fill="#2E3054"/>
<path opacity="0.2" d="M123.983 39.3471V21.1601C123.983 19.8944 122.973 18.8666 121.725 18.8666H56.142C54.8941 18.8666 53.8838 19.8944 53.8838 21.1601V110.388L123.991 39.3471H123.983Z" fill="white"/>
<path d="M119.84 115.824C119.84 116.835 118.948 117.651 117.845 117.651H60.0131C58.9095 117.651 58.0181 116.835 58.0181 115.824V27.5141C58.0181 26.5032 58.9095 25.6877 60.0131 25.6877H117.845C118.948 25.6877 119.84 26.5032 119.84 27.5141V115.824Z" fill="white"/>
<path opacity="0.6" d="M106.571 71.4313H70.7612V76.1458H106.571V71.4313Z" fill="#CBCFFF"/>
<path opacity="0.6" d="M106.571 80.478H70.7612V83.1284H106.571V80.478Z" fill="#CBCFFF"/>
<path d="M57.8996 200.04L71.4661 199.539L67.7306 182.617V147.739C78.47 128.787 64.1819 116.317 62.0086 112.741C59.8352 109.164 61.8303 96.0657 62.7302 87.3247C63.5452 79.4417 61.1936 75.0925 56.5837 75.5682C56.5837 75.5682 53.8755 75.0925 52.7888 84.6234C51.7022 94.1544 48.994 101.935 45.666 107.313C43.5776 110.693 36.5991 126.324 42.839 141.334C49.0789 156.344 57.8996 200.048 57.8996 200.048V200.04Z" fill="#ECB49F"/>
<path d="M124.739 62.2401C124.739 62.2401 135.919 67.94 132.846 76.9018C129.773 85.8552 121.114 95.9043 116.92 95.0888C112.726 94.2734 115.307 89.4229 117.828 84.8018C120.341 80.1893 123.626 75.5427 123.626 75.5427L124.747 62.2401H124.739Z" fill="#ECB49F"/>
<g style="mix-blend-mode:multiply">
<path d="M124.738 62.2401L123.618 75.5427C123.618 75.5427 121.393 78.6942 119.203 82.3809C122.82 81.0812 128.109 74.4979 131.165 67.6597C128.61 64.2109 124.738 62.2401 124.738 62.2401Z" fill="#DA905E"/>
</g>
<path d="M124.441 48.4788C124.441 48.4788 135.291 54.1787 132.311 63.1405C129.323 72.0938 120.918 82.143 116.843 81.3275C112.777 80.512 115.281 75.6616 117.726 71.0405C120.171 66.4279 123.363 61.7814 123.363 61.7814L124.45 48.4788H124.441Z" fill="#ECB49F"/>
<g style="mix-blend-mode:multiply">
<path d="M54.9534 77.1991C54.9534 77.1991 58.205 80.4525 57.6701 84.8018C57.1268 89.1425 52.7886 88.0637 52.7886 88.0637C52.7886 88.0637 53.3319 78.8301 54.9619 77.2076L54.9534 77.1991Z" fill="#F4D7B6"/>
</g>
<path d="M94.4476 125.899C94.4476 128.948 91.9771 131.429 88.9208 131.429C85.8645 131.429 83.394 128.957 83.394 125.899C83.394 122.841 85.8645 120.369 88.9208 120.369C91.9771 120.369 94.4476 122.841 94.4476 125.899Z" fill="#596A83"/>
<path d="M93.1145 125.899C93.1145 128.218 91.2383 130.104 88.9122 130.104C86.586 130.104 84.7183 128.226 84.7183 125.899C84.7183 123.571 86.5945 121.694 88.9122 121.694C91.2298 121.694 93.1145 123.571 93.1145 125.899Z" fill="#2E3054"/>
<path opacity="0.6" d="M117.845 25.6877H60.0131C58.9095 25.6877 58.0181 26.5032 58.0181 27.5141V36.4589H119.831V27.5141C119.831 26.5032 118.94 25.6877 117.836 25.6877H117.845Z" fill="#CBCFFF"/>
<path d="M102.215 97.272H74.1317C72.1718 97.272 70.583 98.8617 70.583 100.823V106.438C70.583 108.399 72.1718 109.988 74.1317 109.988H102.215C104.175 109.988 105.764 108.399 105.764 106.438V100.823C105.764 98.8617 104.175 97.272 102.215 97.272Z" fill="#7AB6F6"/>
<path d="M84.3871 100.763C84.8371 101.137 85.0663 101.723 85.0663 102.505C85.0663 103.286 84.8371 103.864 84.3786 104.229C83.9202 104.594 83.2155 104.773 82.2647 104.773H81.1186V106.675H80.0234V100.194H82.2477C83.2325 100.194 83.9457 100.381 84.3956 100.763H84.3871ZM83.6146 103.439C83.8353 103.21 83.9457 102.87 83.9457 102.42C83.9457 101.969 83.8098 101.655 83.5297 101.468C83.2495 101.281 82.8165 101.188 82.2223 101.188H81.1101V103.787H82.3751C82.9778 103.787 83.3938 103.668 83.6146 103.439Z" fill="#F5F6F2"/>
<path d="M86.9172 105.197L86.272 106.667H85.1089L87.9614 100.186H89.1245L91.977 106.667H90.8139L90.1687 105.197H86.9257H86.9172ZM89.7103 104.187L88.5302 101.519L87.3502 104.187H89.7018H89.7103Z" fill="#F5F6F2"/>
<path d="M94.948 106.676H93.8359V104.119L91.4248 100.203H92.6218L94.3877 103.15L96.1535 100.203H97.3506L94.9395 104.119V106.676H94.948Z" fill="#F5F6F2"/>
<path opacity="0.5" d="M69.4625 28.0747H61.7539V29.1365H69.4625V28.0747Z" fill="white"/>
<path opacity="0.5" d="M69.4625 30.7335H61.7539V31.7953H69.4625V30.7335Z" fill="white"/>
<path opacity="0.5" d="M69.4625 33.3839H61.7539V34.4457H69.4625V33.3839Z" fill="white"/>
<path opacity="0.5" d="M114.848 27.7434C114.848 28.2021 114.474 28.5844 114.007 28.5844C113.541 28.5844 113.167 28.2106 113.167 27.7434C113.167 27.2762 113.541 26.9025 114.007 26.9025C114.474 26.9025 114.848 27.2762 114.848 27.7434Z" fill="white"/>
<path opacity="0.5" d="M114.848 30.5891C114.848 31.0563 114.474 31.4301 114.007 31.4301C113.541 31.4301 113.167 31.0563 113.167 30.5891C113.167 30.1219 113.541 29.7482 114.007 29.7482C114.474 29.7482 114.848 30.1219 114.848 30.5891Z" fill="white"/>
<path opacity="0.5" d="M114.848 33.4433C114.848 33.9105 114.474 34.2842 114.007 34.2842C113.541 34.2842 113.167 33.9105 113.167 33.4433C113.167 32.9761 113.541 32.6023 114.007 32.6023C114.474 32.6023 114.848 32.9761 114.848 33.4433Z" fill="white"/>
<path d="M77.3577 202.367C88.1042 202.367 96.816 200.972 96.816 199.25C96.816 197.528 88.1042 196.132 77.3577 196.132C66.6112 196.132 57.8994 197.528 57.8994 199.25C57.8994 200.972 66.6112 202.367 77.3577 202.367Z" fill="#ECB49F"/>
<path d="M135.962 95.3691C135.962 95.3691 158.094 97.8411 164.614 118.899L160.302 128.49C160.302 128.49 139.969 102.827 135.97 95.3691H135.962Z" fill="#E7A588"/>
<g style="mix-blend-mode:multiply">
<path d="M141.353 97.3484C141.353 97.3484 155.242 102.946 159.554 127.785L154.019 130.265C154.019 130.265 143.857 104.798 141.361 97.3484H141.353Z" fill="#F4D7B6"/>
</g>
<path d="M125.256 92.0053C125.256 92.0053 142.465 88.6075 156.337 119.137L147.644 124.735C147.644 124.735 129.263 99.4551 125.256 92.0053Z" fill="#E7A588"/>
<g style="mix-blend-mode:multiply">
<path d="M128.38 92.5319C128.38 92.5319 142.269 98.1299 146.574 122.968L141.038 125.449C141.038 125.449 130.876 99.9817 128.38 92.5234V92.5319Z" fill="#F4D7B6"/>
</g>
<path d="M114.797 86.9C114.797 86.9 131.683 86.0845 146.03 118.959L135.011 122.059C135.011 122.059 118.931 94.9189 114.797 86.8915V86.9Z" fill="#E7A588"/>
<g style="mix-blend-mode:multiply">
<path d="M111.86 86.2374C111.86 86.2374 128.831 92.7698 134.264 121.269L127.532 124.064C127.532 124.064 114.967 94.8 111.86 86.2374Z" fill="#F4D7B6"/>
</g>
<path d="M128.261 186.933C132.099 188.904 143.967 191.375 147.907 198.851L152.219 214.124C152.219 214.124 154.715 217.471 169.453 218.813C184.191 220.155 197.69 214.124 197.69 214.124L182.612 186.083C182.765 162.154 164.606 118.899 164.606 118.899C163.222 114.482 134.552 118.041 135.35 122.136C133.703 118.415 133.576 118.092 131.87 114.745C126.844 103.864 114.398 86.0251 114.398 86.0251C109.194 77.6324 106.706 75.6702 103.166 77.2077C99.6259 78.7367 104.779 86.1355 106.163 90.5527C106.163 90.5527 124.339 123.461 127.761 143.466C131.19 163.471 127.761 159.461 123.864 159.58C119.967 159.699 118.43 154.602 110.671 144.451C101.595 131.582 96.9092 138.233 96.9092 138.233C113.269 177.24 116.758 181.021 128.261 186.933Z" fill="#E7A588"/>
<g style="mix-blend-mode:multiply">
<path d="M97.4272 139.363C97.4272 139.363 103.455 140.365 105.467 146.065L101.451 148.078L97.4272 139.363Z" fill="#F4D7B6"/>
</g>
<path d="M39.7146 29.2555H94.0483C96.3915 29.2555 98.2931 31.1583 98.2931 33.5028V62.9537C98.2931 65.2982 96.3915 67.201 94.0483 67.201H39.7146C37.3714 67.201 35.4697 65.2982 35.4697 62.9537V33.5028C35.4697 31.1583 37.3714 29.2555 39.7146 29.2555Z" fill="#FA7071"/>
<path opacity="0.6" d="M89.9394 50.0844H40.2749V54.4336H89.9394V50.0844Z" fill="white"/>
<path opacity="0.6" d="M89.9392 57.8909H56.8296V59.7937H89.9392V57.8909Z" fill="white"/>
<path opacity="0.6" d="M50.887 57.8909H40.2749V59.7937H50.887V57.8909Z" fill="white"/>
<path opacity="0.6" d="M52.5849 37.5377H41.5483V46.4571H52.5849V37.5377Z" fill="white"/>
<path d="M86.1189 40.5108C86.1189 43.4414 83.7418 45.8199 80.8129 45.8199C77.8839 45.8199 75.5068 43.4414 75.5068 40.5108C75.5068 37.5802 77.8839 35.2017 80.8129 35.2017C83.7418 35.2017 86.1189 37.5802 86.1189 40.5108Z" fill="#7AB6F6"/>
<path d="M93.3352 40.5108C93.3352 43.4414 90.9581 45.8199 88.0292 45.8199C85.1002 45.8199 82.7231 43.4414 82.7231 40.5108C82.7231 37.5802 85.1002 35.2017 88.0292 35.2017C90.9581 35.2017 93.3352 37.5802 93.3352 40.5108Z" fill="white"/>
<path d="M39.0014 157.533C39.0014 164.023 33.7463 169.281 27.2602 169.281C20.7741 169.281 15.519 164.023 15.519 157.533C15.519 151.043 20.7741 145.785 27.2602 145.785C33.7463 145.785 39.0014 151.043 39.0014 157.533Z" fill="#BFD4F8"/>
<path d="M130.741 7.36484C130.741 11.4338 127.447 14.7297 123.38 14.7297C119.314 14.7297 116.02 11.4338 116.02 7.36484C116.02 3.29592 119.314 0 123.38 0C127.447 0 130.741 3.29592 130.741 7.36484Z" fill="#BFD4F8"/>
<path d="M175.685 75.6702C174.641 84.581 166.584 90.9605 157.678 89.9157C148.773 88.8708 142.397 80.8009 143.441 71.8986C144.485 62.9877 152.542 56.6082 161.448 57.6531C170.353 58.6979 176.729 66.7593 175.685 75.6702Z" fill="#5EBFD8"/>
<path d="M175.685 75.6702C174.641 84.581 166.584 90.9605 157.678 89.9157C148.773 88.8708 142.397 80.8009 143.441 71.8986C144.485 62.9877 152.542 56.6082 161.448 57.6531C170.353 58.6979 176.729 66.7593 175.685 75.6702Z" fill="#7AB6F6"/>
<path d="M165.599 89.8902C156.727 93.2285 146.794 88.7264 143.458 79.8495C140.121 70.9726 144.621 61.0339 153.493 57.6955C162.364 54.3571 172.297 58.8593 175.634 67.7362C178.97 76.613 174.471 86.5518 165.599 89.8902ZM154.07 59.2161C146.039 62.2401 141.964 71.236 144.986 79.2719C148.008 87.3078 156.999 91.3852 165.03 88.3696C173.061 85.3455 177.136 76.3497 174.114 68.3053C171.092 60.2694 162.101 56.192 154.07 59.2161Z" fill="white"/>
<path d="M161.117 90.3998C160.675 90.5612 160.225 90.6547 159.775 90.6547C157.577 90.6886 155.539 88.8538 154.045 85.5069C152.653 82.3724 151.846 78.21 151.787 73.7843C151.668 65.4256 154.266 58.3411 157.959 56.9565C158.4 56.7951 158.85 56.7016 159.3 56.7016C161.499 56.6677 163.536 58.5025 165.03 61.8494C166.431 64.9839 167.229 69.1463 167.289 73.572C167.408 81.9307 164.81 89.0152 161.108 90.4083L161.117 90.3998ZM158.536 58.477C155.93 59.4624 153.298 65.4426 153.408 73.7588C153.468 77.9722 154.223 81.9052 155.531 84.8443C156.728 87.5201 158.264 89.0492 159.75 89.0322C160.013 89.0322 160.276 88.9727 160.539 88.8793C163.146 87.8939 165.778 81.9137 165.659 73.5974C165.599 69.3841 164.844 65.4511 163.536 62.512C162.339 59.8277 160.803 58.3071 159.317 58.3241C159.054 58.3241 158.782 58.3836 158.527 58.477H158.536Z" fill="white"/>
<path d="M175.304 72.5395L143.742 72.975L143.765 74.6058L175.326 74.1703L175.304 72.5395Z" fill="white"/>
<path d="M173.176 63.557L145.63 63.937L145.652 65.5678L173.199 65.1878L173.176 63.557Z" fill="white"/>
<path d="M173.425 81.5775L145.878 81.9575L145.901 83.5883L173.447 83.2083L173.425 81.5775Z" fill="white"/>
<path d="M41.0644 97.4504C38.3816 101.383 38.0845 101.825 26.2075 104.671C14.3389 107.516 12.2505 114.329 12.2505 114.329L9.55078 101.383C9.55078 101.383 11.6392 94.5707 23.5078 91.7165C35.3848 88.8623 35.6734 88.4291 38.3647 84.4875L41.0559 97.4334L41.0644 97.4504Z" fill="#5FA4AD"/>
<path d="M29.6376 97.2549C30.2743 100.305 28.5934 103.244 25.8852 103.804C23.177 104.365 20.4688 102.352 19.832 99.2937C19.1953 96.2441 20.8763 93.3134 23.576 92.7443C26.2842 92.1837 28.9924 94.1969 29.6291 97.2549H29.6376Z" fill="white"/>
<path d="M28.2196 133.17C24.238 134.147 23.7965 134.257 14.5173 129.263C5.23811 124.268 0 127.428 0 127.428L5.67109 117.6C5.67109 117.6 10.9177 114.44 20.1884 119.434C29.4676 124.429 29.909 124.319 33.8907 123.342L28.2196 133.17Z" fill="#5FA4AD"/>
<path d="M20.9694 126.476C19.6281 128.795 16.8689 129.704 14.806 128.515C12.7345 127.326 12.1487 124.472 13.4901 122.153C14.8229 119.834 17.5821 118.925 19.6536 120.114C21.7165 121.303 22.3108 124.157 20.9694 126.476Z" fill="white"/>
<path d="M197.13 209.868C196.977 210.335 197.087 210.658 197.554 210.718L197.13 209.868Z" fill="#E6EDFF"/>
<path d="M189.93 163.513C189.93 163.87 189.701 164.159 189.412 164.159C189.124 164.159 188.895 163.87 188.895 163.513V161.432C188.895 161.075 189.132 160.786 189.412 160.786C189.693 160.786 189.93 161.075 189.93 161.432V163.513Z" fill="#2E3054"/>
<path d="M189.93 155.333C189.93 155.69 189.701 155.978 189.412 155.978C189.124 155.978 188.895 155.69 188.895 155.333V153.252C188.895 152.895 189.132 152.615 189.412 152.615C189.693 152.615 189.93 152.903 189.93 153.252V155.333Z" fill="#2E3054"/>
<path d="M194.116 160.489C194.422 160.667 194.557 161.016 194.413 161.262C194.269 161.508 193.904 161.568 193.598 161.398L191.798 160.353C191.493 160.175 191.357 159.826 191.501 159.58C191.645 159.334 192.011 159.274 192.316 159.453L194.124 160.497L194.116 160.489Z" fill="#2E3054"/>
<path d="M187.035 156.403C187.341 156.581 187.477 156.93 187.333 157.176C187.188 157.422 186.823 157.482 186.518 157.303L184.718 156.259C184.412 156.08 184.276 155.732 184.421 155.486C184.565 155.239 184.93 155.18 185.236 155.358L187.035 156.403Z" fill="#2E3054"/>
<path d="M193.598 155.358C193.903 155.18 194.268 155.239 194.413 155.486C194.557 155.732 194.421 156.08 194.116 156.259L192.307 157.303C192.002 157.482 191.637 157.422 191.492 157.176C191.348 156.93 191.484 156.581 191.79 156.403L193.589 155.358H193.598Z" fill="#2E3054"/>
<path d="M186.517 159.453C186.823 159.274 187.188 159.334 187.332 159.58C187.477 159.826 187.341 160.175 187.035 160.353L185.236 161.398C184.93 161.576 184.565 161.517 184.421 161.27C184.276 161.024 184.404 160.676 184.718 160.497L186.517 159.453Z" fill="#2E3054"/>
</g>
<defs>
<clipPath id="clip0_40_96">
<rect width="210" height="219" fill="white"/>
</clipPath>
</defs>
</svg>
