<svg width="212" height="260" viewBox="0 0 212 260" fill="none" xmlns="http://www.w3.org/2000/svg">
<g clip-path="url(#clip0_56_10713)">
<path opacity="0.6" d="M168.487 144.157C195.829 117.065 195.829 73.1412 168.487 46.0497C141.146 18.9582 96.8163 18.9582 69.4749 46.0497C42.1334 73.1412 42.1334 117.065 69.4748 144.157C96.8163 171.248 141.146 171.248 168.487 144.157Z" fill="#CBCFFF"/>
<path opacity="0.3" d="M204.389 127.442C211.049 141.997 204.55 159.14 189.86 165.748C175.171 172.347 157.87 165.908 151.201 151.353C144.541 136.797 151.039 119.654 165.729 113.047C180.419 106.448 197.72 112.887 204.389 127.442Z" fill="#DA97B8"/>
<path opacity="0.3" d="M76.2299 19.5618C82.89 34.1172 76.3915 51.2601 61.7018 57.8677C47.012 64.4754 29.711 58.0279 23.0424 43.4724C16.3822 28.917 22.8808 11.7742 37.5705 5.1665C52.2602 -1.44117 69.5612 5.00636 76.2299 19.5618Z" fill="#DA97B8"/>
<path d="M130.005 104.72C145.528 138.626 130.379 178.584 96.1595 193.965C61.9402 209.347 21.6136 194.336 6.09034 160.43C-9.43296 126.523 5.71608 86.5739 39.9354 71.1841C74.1547 55.8028 114.481 70.8133 130.005 104.72Z" fill="#CAE1FC"/>
<path d="M35.6655 156.3C35.6655 162.739 30.4004 167.956 23.9019 167.956C17.4033 167.956 12.1382 162.739 12.1382 156.3C12.1382 149.861 17.4033 144.644 23.9019 144.644C30.4004 144.644 35.6655 149.861 35.6655 156.3Z" fill="#BFD4F8"/>
<path d="M127.589 7.30721C127.589 11.3443 124.288 14.6144 120.214 14.6144C116.14 14.6144 112.839 11.3443 112.839 7.30721C112.839 3.27012 116.14 0 120.214 0C124.288 0 127.589 3.27012 127.589 7.30721Z" fill="#BFD4F8"/>
<path d="M186.892 162.234C186.892 162.588 186.663 162.874 186.373 162.874C186.084 162.874 185.854 162.588 185.854 162.234V160.169C185.854 159.815 186.093 159.528 186.373 159.528C186.654 159.528 186.892 159.815 186.892 160.169V162.234Z" fill="#2E3054"/>
<path d="M186.892 154.117C186.892 154.471 186.663 154.758 186.373 154.758C186.084 154.758 185.854 154.471 185.854 154.117V152.052C185.854 151.698 186.093 151.42 186.373 151.42C186.654 151.42 186.892 151.707 186.892 152.052V154.117Z" fill="#2E3054"/>
<path d="M191.085 159.233C191.392 159.41 191.528 159.756 191.383 160C191.239 160.244 190.873 160.303 190.567 160.135L188.763 159.098C188.457 158.921 188.321 158.576 188.466 158.331C188.61 158.087 188.976 158.028 189.282 158.205L191.094 159.241L191.085 159.233Z" fill="#2E3054"/>
<path d="M183.992 155.179C184.298 155.356 184.434 155.702 184.289 155.946C184.145 156.19 183.779 156.249 183.473 156.072L181.67 155.036C181.363 154.859 181.227 154.513 181.372 154.269C181.516 154.024 181.882 153.965 182.188 154.142L183.992 155.179Z" fill="#2E3054"/>
<path d="M190.558 154.142C190.864 153.965 191.23 154.024 191.375 154.269C191.519 154.513 191.383 154.859 191.077 155.036L189.265 156.072C188.959 156.249 188.593 156.19 188.449 155.946C188.304 155.702 188.44 155.356 188.746 155.179L190.55 154.142H190.558Z" fill="#2E3054"/>
<path d="M183.473 158.205C183.779 158.028 184.145 158.087 184.289 158.331C184.434 158.576 184.298 158.921 183.992 159.098L182.188 160.135C181.882 160.312 181.516 160.253 181.372 160.008C181.227 159.764 181.355 159.418 181.67 159.241L183.473 158.205Z" fill="#2E3054"/>
</g>
<mask id="mask0_56_10713" style="mask-type:luminance" maskUnits="userSpaceOnUse" x="7" y="1" width="205" height="205">
<mask id="mask1_56_10713" style="mask-type:luminance" maskUnits="userSpaceOnUse" x="7" y="1" width="205" height="205">
<path d="M211.118 1H7V205.118H211.118V1Z" fill="white"/>
</mask>
<g mask="url(#mask1_56_10713)">
<path d="M211.119 1.00842H7.00488V205.123H211.119V1.00842Z" fill="white"/>
</g>
</mask>
<g mask="url(#mask0_56_10713)">
<path fill-rule="evenodd" clip-rule="evenodd" d="M161.233 39.0529H56.8848V173.877H161.233V39.0529Z" fill="#285E78"/>
<path fill-rule="evenodd" clip-rule="evenodd" d="M155.796 45.1151H62.4609V168.474H155.796V45.1151Z" fill="white"/>
<path fill-rule="evenodd" clip-rule="evenodd" d="M154.482 51.0549H63.7393V64.4316H154.482V51.0549Z" fill="#98D0EA"/>
<path d="M68.9486 54.8866V57.4552H69.7222C69.9623 57.4552 70.1533 57.4262 70.2958 57.3682C70.4379 57.3103 70.5493 57.2274 70.6293 57.1196C70.7004 57.0114 70.7493 56.8788 70.7759 56.7204C70.8024 56.5624 70.8159 56.3791 70.8159 56.1709C70.8159 55.9627 70.8024 55.7794 70.7759 55.6214C70.7493 55.4634 70.6959 55.3262 70.6159 55.2107C70.4468 54.9947 70.1268 54.8866 69.6557 54.8866H68.949H68.9486ZM67.5884 62.0139V53.7758H69.7757C71.376 53.7758 72.1761 54.582 72.1761 56.1941C72.1761 56.6799 72.0896 57.0927 71.9161 57.4323C71.7426 57.7716 71.438 58.0455 71.0025 58.2537L72.4696 62.0144H71.0294L69.7622 58.497H68.9486V62.0144H67.5884V62.0139Z" fill="#285E78"/>
<path d="M73.2695 62.0139V53.7758H77.3237V54.8866H74.6298V57.3049H76.9771V58.4158H74.6298V60.8337H77.3237V62.0139H73.2695Z" fill="#285E78"/>
<path d="M78.124 55.7198C78.124 55.3884 78.1906 55.0948 78.3241 54.8405C78.4576 54.5858 78.6351 54.3739 78.8576 54.2041C79.0711 54.042 79.3132 53.9187 79.5843 53.8338C79.8554 53.7489 80.1289 53.7064 80.4044 53.7064C80.68 53.7064 80.9535 53.7489 81.2246 53.8338C81.4956 53.9187 81.7426 54.042 81.9647 54.2041C82.1782 54.3739 82.3513 54.5858 82.4848 54.8405C82.6183 55.0952 82.6848 55.3884 82.6848 55.7198V56.1362H81.3246V55.7198C81.3246 55.4345 81.2336 55.2242 81.0511 55.0891C80.869 54.954 80.653 54.8866 80.4044 54.8866C80.1558 54.8866 79.9399 54.954 79.7578 55.0891C79.5757 55.2242 79.4843 55.4345 79.4843 55.7198V60.0704C79.4843 60.3558 79.5753 60.566 79.7578 60.7011C79.9399 60.8363 80.1558 60.9036 80.4044 60.9036C80.653 60.9036 80.869 60.8363 81.0511 60.7011C81.2331 60.566 81.3246 60.3558 81.3246 60.0704V58.5199H80.2444V57.4785H82.6848V60.0704C82.6848 60.4174 82.6183 60.7146 82.4848 60.9612C82.3513 61.2082 82.1782 61.4123 81.9647 61.5743C81.7422 61.7442 81.4956 61.8711 81.2246 61.956C80.9535 62.041 80.68 62.0834 80.4044 62.0834C80.1289 62.0834 79.8554 62.041 79.5843 61.956C79.3132 61.8711 79.0707 61.7438 78.8576 61.5743C78.6355 61.4123 78.4576 61.2077 78.3241 60.9612C78.1906 60.7142 78.124 60.4174 78.124 60.0704V55.7198Z" fill="#285E78"/>
<path d="M83.9253 62.0139V53.7758H85.2855V62.0139H83.9253Z" fill="#285E78"/>
<path d="M91.0072 56.148H89.647V55.8819C89.647 55.612 89.5735 55.3785 89.4269 55.1817C89.2804 54.985 89.0334 54.8866 88.6868 54.8866C88.5002 54.8866 88.3488 54.9176 88.2332 54.9793C88.1177 55.0409 88.0242 55.1181 87.9532 55.2107C87.8822 55.3112 87.8332 55.4246 87.8066 55.552C87.7801 55.6794 87.7666 55.8125 87.7666 55.9513C87.7666 56.1133 87.7732 56.248 87.7866 56.3562C87.8001 56.4644 87.8332 56.5608 87.8866 56.6457C87.9401 56.7306 88.0177 56.8037 88.1202 56.8657C88.2222 56.9274 88.3622 56.989 88.5402 57.0506L89.5804 57.4095C89.8825 57.5099 90.127 57.6275 90.314 57.7626C90.5006 57.8977 90.6475 58.0537 90.7541 58.2313C90.8521 58.4162 90.9186 58.6264 90.9541 58.862C90.9896 59.0971 91.0076 59.3653 91.0076 59.6662C91.0076 60.0132 90.9676 60.3353 90.8876 60.6325C90.8076 60.9293 90.6786 61.182 90.501 61.3902C90.3144 61.6061 90.0699 61.776 89.7674 61.8993C89.4649 62.0225 89.0962 62.0842 88.6603 62.0842C88.3312 62.0842 88.0246 62.034 87.7401 61.9339C87.4556 61.8335 87.211 61.6947 87.0065 61.5176C86.802 61.34 86.6399 61.1338 86.5199 60.8987C86.3999 60.6635 86.3398 60.4067 86.3398 60.1291V59.6895H87.7001V60.0597C87.7001 60.2757 87.7736 60.4704 87.9201 60.6439C88.0667 60.8174 88.3137 60.9044 88.6603 60.9044C88.8913 60.9044 89.0713 60.8754 89.2004 60.8174C89.3294 60.7595 89.4294 60.6766 89.5004 60.5688C89.5714 60.4606 89.6139 60.3316 89.627 60.181C89.6404 60.0308 89.647 59.863 89.647 59.6776C89.647 59.4617 89.638 59.2841 89.6204 59.1453C89.6025 59.0065 89.5669 58.8946 89.5139 58.8097C89.4518 58.7248 89.3694 58.6554 89.2673 58.6015C89.1648 58.5476 89.0293 58.4897 88.8607 58.428L87.8871 58.081C87.3 57.8728 86.9069 57.5969 86.7068 57.2539C86.5068 56.9106 86.4068 56.4807 86.4068 55.9639C86.4068 55.6553 86.4558 55.3622 86.5534 55.0846C86.6513 54.807 86.7979 54.5678 86.9934 54.3673C87.18 54.1669 87.418 54.0068 87.707 53.8872C87.9961 53.7676 88.3406 53.708 88.7407 53.708C89.0787 53.708 89.3877 53.7619 89.6678 53.8701C89.9478 53.9783 90.1903 54.1207 90.3948 54.2983C90.8039 54.6686 91.0084 55.0927 91.0084 55.5712V56.1497L91.0072 56.148Z" fill="#285E78"/>
<path d="M92.9146 62.0139V54.8866H91.3408V53.7758H95.8486V54.8866H94.2748V62.0139H92.9146Z" fill="#285E78"/>
<path d="M97.809 54.8866V57.4552H98.5826C98.8226 57.4552 99.0137 57.4262 99.1561 57.3682C99.2982 57.3103 99.4097 57.2274 99.4897 57.1196C99.5607 57.0114 99.6097 56.8788 99.6362 56.7204C99.6628 56.5624 99.6762 56.3791 99.6762 56.1709C99.6762 55.9627 99.6628 55.7794 99.6362 55.6214C99.6097 55.4634 99.5562 55.3262 99.4762 55.2107C99.3072 54.9947 98.9871 54.8866 98.516 54.8866H97.809ZM96.4487 62.0139V53.7758H98.636C100.236 53.7758 101.036 54.582 101.036 56.1941C101.036 56.6799 100.95 57.0927 100.776 57.4323C100.603 57.7716 100.298 58.0455 99.8628 58.2537L101.33 62.0144H99.8897L98.6226 58.497H97.809V62.0144H96.4487V62.0139Z" fill="#285E78"/>
<path d="M104.877 59.133L104.21 56.148H104.184L103.517 59.133H104.877H104.877ZM101.516 62.0139L103.636 53.7758H104.77L106.891 62.0139H105.53L105.13 60.2434H103.276L102.876 62.0139H101.516Z" fill="#285E78"/>
<path d="M107.718 62.0139V54.8866H106.144V53.7758H110.652V54.8866H109.078V62.0139H107.718Z" fill="#285E78"/>
<path d="M111.292 62.0139V53.7758H112.652V62.0139H111.292Z" fill="#285E78"/>
<path d="M113.893 55.7198C113.893 55.3884 113.959 55.0948 114.093 54.8405C114.226 54.5858 114.404 54.3739 114.626 54.2041C114.84 54.042 115.082 53.9187 115.353 53.8338C115.624 53.7489 115.897 53.7064 116.173 53.7064C116.449 53.7064 116.722 53.7489 116.993 53.8338C117.264 53.9187 117.511 54.042 117.733 54.2041C117.947 54.3739 118.12 54.5858 118.253 54.8405C118.387 55.0952 118.453 55.3884 118.453 55.7198V60.0704C118.453 60.4174 118.387 60.7146 118.253 60.9612C118.12 61.2082 117.947 61.4123 117.733 61.5743C117.511 61.7442 117.264 61.8711 116.993 61.956C116.722 62.041 116.449 62.0834 116.173 62.0834C115.897 62.0834 115.624 62.041 115.353 61.956C115.082 61.8711 114.839 61.7438 114.626 61.5743C114.404 61.4123 114.226 61.2077 114.093 60.9612C113.959 60.7142 113.893 60.4174 113.893 60.0704V55.7198ZM115.253 60.0704C115.253 60.3558 115.344 60.566 115.526 60.7011C115.708 60.8363 115.924 60.9036 116.173 60.9036C116.422 60.9036 116.638 60.8363 116.82 60.7011C117.002 60.566 117.093 60.3558 117.093 60.0704V55.7198C117.093 55.4345 117.002 55.2242 116.82 55.0891C116.638 54.954 116.422 54.8866 116.173 54.8866C115.924 54.8866 115.708 54.954 115.526 55.0891C115.344 55.2242 115.253 55.4345 115.253 55.7198V60.0704Z" fill="#285E78"/>
<path d="M119.601 62.0139V53.7758H120.907L122.961 58.7399H122.988V53.7758H124.348V62.0139H123.068L120.987 57.0621H120.961V62.0139H119.601Z" fill="#285E78"/>
<path d="M128.056 62.0139V53.7758H132.11V54.8866H129.416V57.3858H131.764V58.4966H129.416V62.0139H128.056Z" fill="#285E78"/>
<path d="M132.911 55.7198C132.911 55.3884 132.977 55.0948 133.111 54.8405C133.244 54.5858 133.422 54.3739 133.644 54.2041C133.858 54.042 134.1 53.9187 134.371 53.8338C134.642 53.7489 134.915 53.7064 135.191 53.7064C135.467 53.7064 135.74 53.7489 136.011 53.8338C136.282 53.9187 136.529 54.042 136.751 54.2041C136.965 54.3739 137.138 54.5858 137.271 54.8405C137.405 55.0952 137.471 55.3884 137.471 55.7198V60.0704C137.471 60.4174 137.405 60.7146 137.271 60.9612C137.138 61.2082 136.965 61.4123 136.751 61.5743C136.529 61.7442 136.282 61.8711 136.011 61.956C135.74 62.041 135.467 62.0834 135.191 62.0834C134.915 62.0834 134.642 62.041 134.371 61.956C134.1 61.8711 133.857 61.7438 133.644 61.5743C133.422 61.4123 133.244 61.2077 133.111 60.9612C132.977 60.7142 132.911 60.4174 132.911 60.0704V55.7198ZM134.271 60.0704C134.271 60.3558 134.362 60.566 134.544 60.7011C134.726 60.8363 134.942 60.9036 135.191 60.9036C135.44 60.9036 135.656 60.8363 135.838 60.7011C136.02 60.566 136.112 60.3558 136.112 60.0704V55.7198C136.112 55.4345 136.021 55.2242 135.838 55.0891C135.656 54.954 135.44 54.8866 135.191 54.8866C134.942 54.8866 134.726 54.954 134.544 55.0891C134.362 55.2242 134.271 55.4345 134.271 55.7198V60.0704Z" fill="#285E78"/>
<path d="M140.032 54.8866V57.4552H140.806C141.046 57.4552 141.237 57.4262 141.379 57.3682C141.522 57.3103 141.633 57.2274 141.713 57.1196C141.784 57.0114 141.833 56.8788 141.859 56.7204C141.886 56.5624 141.899 56.3791 141.899 56.1709C141.899 55.9627 141.886 55.7794 141.859 55.6214C141.833 55.4634 141.779 55.3262 141.699 55.2107C141.53 54.9947 141.21 54.8866 140.739 54.8866H140.033H140.032ZM138.672 62.0139V53.7758H140.859C142.459 53.7758 143.26 54.582 143.26 56.1941C143.26 56.6799 143.173 57.0927 143 57.4323C142.826 57.7716 142.522 58.0455 142.086 58.2537L143.553 62.0144H142.113L140.846 58.497H140.032V62.0144H138.672V62.0139Z" fill="#285E78"/>
<path d="M144.354 62.0139V53.7758H145.66L147.408 58.1382H147.434L149.168 53.7758H150.488V62.0139H149.128V57.0041H149.101L147.754 60.5447H147.074L145.74 57.0041H145.714V62.0139H144.354Z" fill="#285E78"/>
<path d="M84.1167 133.795H74.4905V142.699H84.1167V133.795ZM84.1167 147.149H74.4905V156.053H84.1167V147.149ZM84.1795 106.466H74.5534V115.37H84.1795V106.466ZM83.9387 92.8031H74.3125V101.707H83.9387V92.8031Z" stroke="#61B0D6" stroke-width="24.3" stroke-linecap="round" stroke-linejoin="round"/>
<path d="M84.1803 119.82H74.5537V128.723H84.1803V119.82Z" stroke="#61B0D6" stroke-width="24.33" stroke-linecap="round" stroke-linejoin="round"/>
<path d="M77.2355 110.478L80.7724 112.921L86.175 104.359M76.7554 97.0046L80.2923 99.4471L85.6949 90.8848M76.817 124.44L80.354 126.883L85.7561 118.32" stroke="#519763" stroke-width="29.25" stroke-linecap="round" stroke-linejoin="round"/>
<path fill-rule="evenodd" clip-rule="evenodd" d="M143.365 93.7983H93.7612V96.0518H143.365V93.7983Z" fill="#B6B6B6"/>
<path fill-rule="evenodd" clip-rule="evenodd" d="M127.589 78.3287H67.8916V79.3199H127.589V78.3287Z" fill="#B6B6B6"/>
<path fill-rule="evenodd" clip-rule="evenodd" d="M127.589 82.5393H67.8916V83.5309H127.589V82.5393Z" fill="#B6B6B6"/>
<path fill-rule="evenodd" clip-rule="evenodd" d="M127.589 86.7498H67.8916V87.7414H127.589V86.7498Z" fill="#B6B6B6"/>
<path fill-rule="evenodd" clip-rule="evenodd" d="M143.365 107.378H93.7612V109.631H143.365V107.378Z" fill="#B6B6B6"/>
<path fill-rule="evenodd" clip-rule="evenodd" d="M143.365 120.957H93.7612V123.21H143.365V120.957Z" fill="#B6B6B6"/>
<path fill-rule="evenodd" clip-rule="evenodd" d="M143.365 134.536H93.7612V136.789H143.365V134.536Z" fill="#B6B6B6"/>
<path fill-rule="evenodd" clip-rule="evenodd" d="M143.365 148.115H93.7612V150.368H143.365V148.115Z" fill="#B6B6B6"/>
<path fill-rule="evenodd" clip-rule="evenodd" d="M133.89 98.4584H93.7612V100.712H133.89V98.4584Z" fill="#B6B6B6"/>
<path fill-rule="evenodd" clip-rule="evenodd" d="M140.102 112.037H93.7612V114.291H140.102V112.037Z" fill="#B6B6B6"/>
<path fill-rule="evenodd" clip-rule="evenodd" d="M109.947 125.616H93.7612V127.87H109.947V125.616Z" fill="#B6B6B6"/>
<path fill-rule="evenodd" clip-rule="evenodd" d="M126.132 139.195H93.7612V141.449H126.132V139.195Z" fill="#B6B6B6"/>
<path fill-rule="evenodd" clip-rule="evenodd" d="M121.393 152.775H93.7612V155.028H121.393V152.775Z" fill="#B6B6B6"/>
<path fill-rule="evenodd" clip-rule="evenodd" d="M150.488 67.8743H131.83V90.7408H150.488V67.8743Z" fill="#CECECE"/>
<path fill-rule="evenodd" clip-rule="evenodd" d="M93.5104 69.2601H67.8916V73.6001H93.5104V69.2601Z" fill="#909090"/>
<path fill-rule="evenodd" clip-rule="evenodd" d="M147.221 40.1603C147.221 32.3733 140.908 26.0603 133.121 26.0603H86.6225C78.8354 26.0603 72.5225 32.3728 72.5225 40.1603V41.7921H147.221V40.1603Z" fill="#FFC635"/>
</g>
<mask id="mask2_56_10713" style="mask-type:luminance" maskUnits="userSpaceOnUse" x="72" y="26" width="76" height="16">
<path d="M147.221 40.1603C147.221 32.3733 140.908 26.0603 133.121 26.0603H86.6225C78.8354 26.0603 72.5225 32.3728 72.5225 40.1603V41.7921H147.221V40.1603Z" fill="white"/>
</mask>
<g mask="url(#mask2_56_10713)">
<path fill-rule="evenodd" clip-rule="evenodd" d="M163.289 38.0808H55.9692V41.9211H163.289V38.0808Z" fill="#EFB722"/>
</g>
<mask id="mask3_56_10713" style="mask-type:luminance" maskUnits="userSpaceOnUse" x="7" y="1" width="205" height="205">
<mask id="mask4_56_10713" style="mask-type:luminance" maskUnits="userSpaceOnUse" x="7" y="1" width="205" height="205">
<path d="M211.118 1H7V205.118H211.118V1Z" fill="white"/>
</mask>
<g mask="url(#mask4_56_10713)">
<path d="M211.119 1.00842H7.00488V205.123H211.119V1.00842Z" fill="white"/>
</g>
</mask>
<g mask="url(#mask3_56_10713)">
<path fill-rule="evenodd" clip-rule="evenodd" d="M110.676 19.2576C114.048 19.2576 116.786 22.0083 116.786 25.3962C116.786 28.7841 114.048 31.5348 110.676 31.5348C107.304 31.5348 104.566 28.7841 104.566 25.3962C104.566 22.0083 107.304 19.2576 110.676 19.2576Z" fill="#FFC635"/>
<path fill-rule="evenodd" clip-rule="evenodd" d="M110.676 22.3047C112.374 22.3047 113.753 23.6898 113.753 25.3958C113.753 27.1019 112.374 28.487 110.676 28.487C108.978 28.487 107.599 27.1019 107.599 25.3958C107.599 23.6898 108.978 22.3047 110.676 22.3047Z" fill="#C1F3FB"/>
<path d="M151.122 158.108H131.692V164.921H151.122V158.108Z" stroke="#909090" stroke-width="7.57" stroke-linecap="round" stroke-linejoin="round"/>
<path fill-rule="evenodd" clip-rule="evenodd" d="M181.752 173.396C181.752 173.396 184.252 147.439 182.122 143.289C178.996 137.198 157.421 128.832 154.283 130.144C150.676 131.653 155.501 135.572 159.913 137.784C164.659 140.165 170.401 142.925 171.859 146.129C172.884 148.38 167.876 157.154 167.349 157.537C165.488 158.891 164.625 158.615 159.638 149.972C158.133 147.364 155.124 138.819 153.896 136.609C152.63 134.332 146.941 131.452 147.433 137.359C147.433 137.359 148.897 143.722 150.335 150.504C151.157 154.383 150.961 157.918 152.175 161.256C153.586 165.135 157.436 169.787 159.006 173.136C160.496 176.315 162.251 178.511 162.251 178.511L181.753 173.396H181.752Z" fill="#FFA572"/>
<path fill-rule="evenodd" clip-rule="evenodd" d="M189.473 166.407L193.067 162.013L195.193 163.709L191.599 168.103L189.473 166.407Z" fill="#FFC635"/>
<path fill-rule="evenodd" clip-rule="evenodd" d="M182.15 154.095L182.648 153.5L193.261 162.179L192.763 162.774L182.15 154.095Z" fill="#FFC635"/>
<path fill-rule="evenodd" clip-rule="evenodd" d="M186.989 164.153C186.989 164.153 192.082 164.776 194.85 166.547C195.695 167.089 196.47 167.787 197.037 168.199C197.938 168.853 197.959 170.326 197.085 171.486C196.211 172.646 194.77 173.057 193.869 172.402C193.175 171.898 191.836 171.175 190.928 170.288C188.63 168.044 186.989 164.153 186.989 164.153Z" fill="#C6C4C4"/>
</g>
<mask id="mask5_56_10713" style="mask-type:luminance" maskUnits="userSpaceOnUse" x="186" y="164" width="12" height="9">
<path d="M186.989 164.153C186.989 164.153 192.081 164.776 194.849 166.547C195.695 167.089 196.469 167.787 197.036 168.199C197.937 168.853 197.959 170.326 197.085 171.486C196.211 172.646 194.769 173.057 193.868 172.402C193.174 171.898 191.836 171.175 190.928 170.288C188.629 168.044 186.989 164.153 186.989 164.153Z" fill="white"/>
</mask>
<g mask="url(#mask5_56_10713)">
<path fill-rule="evenodd" clip-rule="evenodd" d="M192.973 169.669L194.46 167.849L198.136 170.943L196.649 172.763L192.973 169.669Z" fill="white"/>
</g>
<mask id="mask6_56_10713" style="mask-type:luminance" maskUnits="userSpaceOnUse" x="7" y="1" width="205" height="205">
<mask id="mask7_56_10713" style="mask-type:luminance" maskUnits="userSpaceOnUse" x="7" y="1" width="205" height="205">
<path d="M211.118 1H7V205.118H211.118V1Z" fill="white"/>
</mask>
<g mask="url(#mask7_56_10713)">
<path d="M211.119 1.00842H7.00488V205.123H211.119V1.00842Z" fill="white"/>
</g>
</mask>
<g mask="url(#mask6_56_10713)">
<path fill-rule="evenodd" clip-rule="evenodd" d="M142.562 130.896L146.722 125.955C146.722 125.955 187.779 159.804 195.405 166.091C195.725 166.355 195.926 166.736 195.964 167.149C196.001 167.562 195.872 167.973 195.605 168.29C194.949 169.07 194.099 170.08 193.447 170.855C192.898 171.506 191.928 171.595 191.27 171.053C183.709 164.819 142.562 130.897 142.562 130.897V130.896Z" fill="black"/>
</g>
<mask id="mask8_56_10713" style="mask-type:luminance" maskUnits="userSpaceOnUse" x="142" y="125" width="54" height="47">
<path d="M142.562 130.896L146.722 125.955C146.722 125.955 187.779 159.804 195.405 166.091C195.725 166.355 195.926 166.736 195.964 167.149C196.001 167.562 195.872 167.973 195.605 168.29C194.949 169.07 194.099 170.08 193.447 170.855C192.898 171.506 191.928 171.595 191.27 171.053C183.709 164.819 142.562 130.897 142.562 130.897V130.896Z" fill="white"/>
</mask>
<g mask="url(#mask8_56_10713)">
<path fill-rule="evenodd" clip-rule="evenodd" d="M143.725 129.267L145.199 127.494L195.565 168.78L194.091 170.552L143.725 129.267Z" fill="#5E5E5E"/>
<path fill-rule="evenodd" clip-rule="evenodd" d="M169.264 143.934L164.634 149.482L163.196 148.309L167.826 142.76L169.264 143.934Z" fill="#FFC635"/>
</g>
<mask id="mask9_56_10713" style="mask-type:luminance" maskUnits="userSpaceOnUse" x="163" y="142" width="7" height="8">
<mask id="mask10_56_10713" style="mask-type:luminance" maskUnits="userSpaceOnUse" x="163" y="142" width="7" height="8">
<path d="M169.264 143.934L164.634 149.482L163.196 148.309L167.827 142.76L169.264 143.934Z" fill="white"/>
</mask>
<g mask="url(#mask10_56_10713)">
<path d="M142.563 130.896L146.722 125.955C146.722 125.955 187.78 159.804 195.405 166.091C195.725 166.355 195.927 166.736 195.964 167.149C196.002 167.562 195.873 167.973 195.606 168.29C194.95 169.07 194.099 170.08 193.447 170.855C192.899 171.506 191.928 171.595 191.271 171.053C183.709 164.819 142.563 130.897 142.563 130.897V130.896Z" fill="white"/>
</g>
</mask>
<g mask="url(#mask9_56_10713)">
<path fill-rule="evenodd" clip-rule="evenodd" d="M143.725 129.267L145.2 127.494L195.566 168.78L194.092 170.552L143.725 129.267Z" fill="#FFDF50"/>
</g>
<mask id="mask11_56_10713" style="mask-type:luminance" maskUnits="userSpaceOnUse" x="142" y="125" width="54" height="47">
<path d="M142.562 130.896L146.722 125.955C146.722 125.955 187.779 159.804 195.405 166.091C195.725 166.355 195.926 166.736 195.964 167.149C196.001 167.562 195.872 167.973 195.605 168.29C194.949 169.07 194.099 170.08 193.447 170.855C192.898 171.506 191.928 171.595 191.27 171.053C183.709 164.819 142.562 130.897 142.562 130.897V130.896Z" fill="white"/>
</mask>
<g mask="url(#mask11_56_10713)">
<path fill-rule="evenodd" clip-rule="evenodd" d="M148.186 126.193L143.556 131.741L142.119 130.568L146.749 125.019L148.186 126.193Z" fill="#FFC635"/>
</g>
<mask id="mask12_56_10713" style="mask-type:luminance" maskUnits="userSpaceOnUse" x="142" y="125" width="7" height="7">
<mask id="mask13_56_10713" style="mask-type:luminance" maskUnits="userSpaceOnUse" x="142" y="125" width="7" height="7">
<path d="M148.187 126.193L143.557 131.741L142.119 130.568L146.749 125.019L148.187 126.193Z" fill="white"/>
</mask>
<g mask="url(#mask13_56_10713)">
<path d="M142.563 130.896L146.722 125.955C146.722 125.955 187.78 159.804 195.405 166.091C195.725 166.355 195.927 166.736 195.964 167.149C196.002 167.562 195.873 167.973 195.606 168.29C194.95 169.07 194.099 170.08 193.447 170.855C192.899 171.506 191.928 171.595 191.271 171.053C183.709 164.819 142.563 130.897 142.563 130.897V130.896Z" fill="white"/>
</g>
</mask>
<g mask="url(#mask12_56_10713)">
<path fill-rule="evenodd" clip-rule="evenodd" d="M143.725 129.267L145.2 127.494L195.566 168.78L194.092 170.552L143.725 129.267Z" fill="#FFDF50"/>
</g>
<mask id="mask14_56_10713" style="mask-type:luminance" maskUnits="userSpaceOnUse" x="142" y="125" width="54" height="47">
<path d="M142.562 130.896L146.722 125.955C146.722 125.955 187.779 159.804 195.405 166.091C195.725 166.355 195.926 166.736 195.964 167.149C196.001 167.562 195.872 167.973 195.605 168.29C194.949 169.07 194.099 170.08 193.447 170.855C192.898 171.506 191.928 171.595 191.27 171.053C183.709 164.819 142.562 130.897 142.562 130.897V130.896Z" fill="white"/>
</mask>
<g mask="url(#mask14_56_10713)">
<path fill-rule="evenodd" clip-rule="evenodd" d="M196.562 165.936L191.631 171.846L190.11 170.604L195.041 164.695L196.562 165.936Z" fill="#FFC635"/>
</g>
<mask id="mask15_56_10713" style="mask-type:luminance" maskUnits="userSpaceOnUse" x="190" y="164" width="6" height="8">
<mask id="mask16_56_10713" style="mask-type:luminance" maskUnits="userSpaceOnUse" x="190" y="164" width="7" height="8">
<path d="M196.562 165.936L191.631 171.846L190.11 170.604L195.041 164.695L196.562 165.936Z" fill="white"/>
</mask>
<g mask="url(#mask16_56_10713)">
<path d="M142.562 130.896L146.722 125.955C146.722 125.955 187.779 159.804 195.405 166.091C195.725 166.355 195.926 166.736 195.964 167.149C196.001 167.562 195.872 167.973 195.605 168.29C194.949 169.07 194.099 170.08 193.447 170.855C192.898 171.506 191.928 171.595 191.27 171.053C183.709 164.819 142.562 130.897 142.562 130.897V130.896Z" fill="white"/>
</g>
</mask>
<g mask="url(#mask15_56_10713)">
<path fill-rule="evenodd" clip-rule="evenodd" d="M143.725 129.267L145.2 127.494L195.566 168.78L194.092 170.552L143.725 129.267Z" fill="#FFDF51"/>
</g>
<mask id="mask17_56_10713" style="mask-type:luminance" maskUnits="userSpaceOnUse" x="7" y="1" width="205" height="205">
<mask id="mask18_56_10713" style="mask-type:luminance" maskUnits="userSpaceOnUse" x="7" y="1" width="205" height="205">
<path d="M211.118 1H7V205.118H211.118V1Z" fill="white"/>
</mask>
<g mask="url(#mask18_56_10713)">
<path d="M211.119 1.00842H7.00488V205.123H211.119V1.00842Z" fill="white"/>
</g>
</mask>
<g mask="url(#mask17_56_10713)">
<path fill-rule="evenodd" clip-rule="evenodd" d="M138.199 123.137C138.103 123.25 139.398 124.708 139.398 124.708L139.972 124.029C139.972 124.029 138.295 123.024 138.199 123.137Z" fill="#CECECE"/>
<path fill-rule="evenodd" clip-rule="evenodd" d="M139.924 123.729L139.016 124.727C140.076 127.646 140.494 128.669 142.562 130.896L146.721 125.955C144.068 124.398 143.04 124.17 139.924 123.729H139.924Z" fill="#C6C4C4"/>
</g>
<mask id="mask19_56_10713" style="mask-type:luminance" maskUnits="userSpaceOnUse" x="139" y="123" width="8" height="8">
<path d="M139.925 123.729L139.017 124.727C140.076 127.646 140.494 128.669 142.563 130.896L146.722 125.955C144.068 124.398 143.04 124.17 139.924 123.729H139.925Z" fill="white"/>
</mask>
<g mask="url(#mask19_56_10713)">
<path fill-rule="evenodd" clip-rule="evenodd" d="M136.479 121.703L146.107 131.791L148.156 129.38L136.479 121.703Z" fill="white"/>
</g>
<mask id="mask20_56_10713" style="mask-type:luminance" maskUnits="userSpaceOnUse" x="7" y="1" width="205" height="205">
<mask id="mask21_56_10713" style="mask-type:luminance" maskUnits="userSpaceOnUse" x="7" y="1" width="205" height="205">
<path d="M211.118 1H7V205.118H211.118V1Z" fill="white"/>
</mask>
<g mask="url(#mask21_56_10713)">
<path d="M211.119 1.00842H7.00488V205.123H211.119V1.00842Z" fill="white"/>
</g>
</mask>
<g mask="url(#mask20_56_10713)">
<path fill-rule="evenodd" clip-rule="evenodd" d="M183.657 169.262L186.953 183.109L162.64 188.896L159.344 175.049L183.657 169.262Z" fill="white"/>
</g>
<mask id="mask22_56_10713" style="mask-type:luminance" maskUnits="userSpaceOnUse" x="159" y="169" width="28" height="20">
<path d="M183.657 169.262L186.953 183.109L162.64 188.896L159.344 175.049L183.657 169.262Z" fill="white"/>
</mask>
<g mask="url(#mask22_56_10713)">
<path fill-rule="evenodd" clip-rule="evenodd" d="M170.766 167.75L175.814 188.956L156.267 193.608L151.22 172.403L170.766 167.75Z" fill="#F3F3F3"/>
</g>
<mask id="mask23_56_10713" style="mask-type:luminance" maskUnits="userSpaceOnUse" x="7" y="1" width="205" height="205">
<mask id="mask24_56_10713" style="mask-type:luminance" maskUnits="userSpaceOnUse" x="7" y="1" width="205" height="205">
<path d="M211.118 1H7V205.118H211.118V1Z" fill="white"/>
</mask>
<g mask="url(#mask24_56_10713)">
<path d="M211.119 1.00842H7.00488V205.123H211.119V1.00842Z" fill="white"/>
</g>
</mask>
<g mask="url(#mask23_56_10713)">
<path fill-rule="evenodd" clip-rule="evenodd" d="M186.359 172.363L198.875 224.945L170.725 231.646L158.209 179.064L186.359 172.363Z" fill="#1B3F58"/>
</g>
<mask id="mask25_56_10713" style="mask-type:luminance" maskUnits="userSpaceOnUse" x="158" y="172" width="41" height="34">
<mask id="mask26_56_10713" style="mask-type:luminance" maskUnits="userSpaceOnUse" x="158" y="172" width="41" height="34">
<mask id="mask27_56_10713" style="mask-type:luminance" maskUnits="userSpaceOnUse" x="158" y="172" width="41" height="60">
<path d="M186.359 172.363L198.875 224.945L170.725 231.646L158.209 179.064L186.359 172.363Z" fill="white"/>
</mask>
<g mask="url(#mask27_56_10713)">
<path d="M211.118 1H7V205.118H211.118V1Z" fill="white"/>
</g>
</mask>
<g mask="url(#mask26_56_10713)">
<path d="M211.119 1.00818H7.00488V205.123H211.119V1.00818Z" fill="white"/>
</g>
</mask>
<g mask="url(#mask25_56_10713)">
<path fill-rule="evenodd" clip-rule="evenodd" d="M171.989 172.884L187.877 239.634L168.33 244.287L152.442 177.537L171.989 172.884Z" fill="#032E46"/>
</g>
<mask id="mask28_56_10713" style="mask-type:luminance" maskUnits="userSpaceOnUse" x="7" y="1" width="205" height="205">
<mask id="mask29_56_10713" style="mask-type:luminance" maskUnits="userSpaceOnUse" x="7" y="1" width="205" height="205">
<path d="M211.118 1H7V205.118H211.118V1Z" fill="white"/>
</mask>
<g mask="url(#mask29_56_10713)">
<path d="M211.119 1.00842H7.00488V205.123H211.119V1.00842Z" fill="white"/>
</g>
</mask>
<g mask="url(#mask28_56_10713)">
<path fill-rule="evenodd" clip-rule="evenodd" d="M165.308 182.935C165.051 181.854 164.02 181.172 163.006 181.413C161.993 181.654 161.38 182.728 161.637 183.809C161.894 184.89 162.926 185.572 163.939 185.331C164.952 185.09 165.566 184.016 165.308 182.935Z" fill="white"/>
<path fill-rule="evenodd" clip-rule="evenodd" d="M166.508 187.975C166.251 186.894 165.219 186.212 164.206 186.454C163.193 186.695 162.579 187.768 162.836 188.849C163.094 189.93 164.125 190.613 165.138 190.371C166.152 190.13 166.765 189.056 166.508 187.975Z" fill="white"/>
<path fill-rule="evenodd" clip-rule="evenodd" d="M156.703 143.108C155.75 139.755 153.191 135.421 149.443 134.62C147 134.099 147.122 136.895 148.122 138.362C149.758 140.763 152.34 144.369 156.703 143.107L156.703 143.108Z" fill="#FFA572"/>
<path fill-rule="evenodd" clip-rule="evenodd" d="M163.457 139.572C159.769 138.296 154.886 135.87 153.376 132.347C152.392 130.051 155.16 129.631 156.792 130.329C159.464 131.471 163.852 135.048 163.457 139.572Z" fill="#FFA572"/>
<path fill-rule="evenodd" clip-rule="evenodd" d="M8.4751 242.405C9.60509 241.956 29.6103 191.603 31.8796 186.874C33.7857 182.902 37.4076 175.709 37.8742 172.99C38.0918 171.722 38.5163 170.396 38.6245 169.11C38.829 166.674 39.3034 164.05 39.9839 161.735C41.0486 158.112 48.4258 137.315 51.9199 137.119C52.2212 137.103 53.372 137.516 53.5055 137.775C54.2305 139.186 52.5474 142.295 51.4215 145.307C50.7054 147.222 50.2849 149.371 49.9763 150.873C49.7383 152.032 49.448 152.795 49.8791 152.84C50.2988 152.883 50.7397 153.083 51.0985 153.039C51.7154 152.963 51.606 152.154 51.8746 151.662C52.7168 150.12 52.8429 148.776 53.4475 147.136C54.2509 144.958 58.7456 135.621 60.4088 134.644C60.8856 134.364 62.3683 134.686 62.723 134.976C63.7685 135.834 63.6481 137.208 63.375 138.265C62.9002 140.106 62.0576 141.538 61.3489 143.262C60.2442 145.948 58.5015 149.005 57.3078 151.905C57.0947 152.423 56.622 154.52 57.3421 154.099C59.5449 152.813 62.2381 147.395 63.2684 145.525C64.1653 143.899 68.8617 134.778 72.1002 137.547C76.4291 141.249 60.9505 154.633 62.9721 157.859C63.3889 158.524 65.2933 157.088 65.5456 156.765C66.3927 155.685 69.0336 152.19 71.5548 149.169C73.7642 146.523 76.047 143.988 77.4224 144.66C77.6339 144.763 78.0825 144.987 78.3217 145.284C78.4903 145.494 78.6181 145.748 78.6491 145.878C80.0257 151.615 63.6881 163.3 65.1533 170.582C65.2214 170.921 65.7693 171.228 66.0485 171.405C66.7629 171.858 67.895 171.295 68.6123 170.944C70.1954 170.169 75.6947 166.166 80.7475 170.348C81.3467 170.844 80.6127 172.357 79.862 172.601C78.9063 172.913 78.1437 173.163 77.0101 173.423C72.3121 174.496 71.1723 176.9 66.8809 178.872C63.1272 180.597 63.1595 180.271 58.595 182.008C57.3205 182.493 54.9939 184.112 54.0534 185.058C50.8181 188.311 48.4364 194.993 46.2532 201.466C45.8715 202.598 28.9044 253.411 27.6148 255.812C19.8126 270.34 8.4751 242.404 8.4751 242.404V242.405Z" fill="#FFA572"/>
<path fill-rule="evenodd" clip-rule="evenodd" d="M33.7858 175.249L27.5859 188.061L49.2334 198.537L55.4333 185.725L33.7858 175.249Z" fill="white"/>
</g>
<mask id="mask30_56_10713" style="mask-type:luminance" maskUnits="userSpaceOnUse" x="27" y="175" width="29" height="24">
<path d="M33.7853 175.249L27.5854 188.061L49.2329 198.537L55.4328 185.725L33.7853 175.249Z" fill="white"/>
</mask>
<g mask="url(#mask30_56_10713)">
<path fill-rule="evenodd" clip-rule="evenodd" d="M46.2853 176.348L36.7905 195.969L54.194 204.391L63.6892 184.77L46.2853 176.348Z" fill="#F3F3F3"/>
</g>
<path fill-rule="evenodd" clip-rule="evenodd" d="M30.5442 177.727L7 226.381L32.064 238.51L55.6086 189.856L30.5442 177.727Z" fill="#1B3F58"/>
<mask id="mask31_56_10713" style="mask-type:luminance" maskUnits="userSpaceOnUse" x="7" y="177" width="49" height="29">
<mask id="mask32_56_10713" style="mask-type:luminance" maskUnits="userSpaceOnUse" x="7" y="177" width="49" height="29">
<mask id="mask33_56_10713" style="mask-type:luminance" maskUnits="userSpaceOnUse" x="7" y="177" width="49" height="62">
<path d="M30.5442 177.727L7 226.381L32.064 238.51L55.6086 189.856L30.5442 177.727Z" fill="white"/>
</mask>
<g mask="url(#mask33_56_10713)">
<path d="M211.118 1H7V205.118H211.118V1Z" fill="white"/>
</g>
</mask>
<g mask="url(#mask32_56_10713)">
<path d="M211.119 1.00818H7.00488V205.123H211.119V1.00818Z" fill="white"/>
</g>
</mask>
<g mask="url(#mask31_56_10713)">
<path fill-rule="evenodd" clip-rule="evenodd" d="M43.9868 181.098L14.0986 242.862L31.5021 251.284L61.3902 189.52L43.9868 181.098Z" fill="#032E46"/>
</g>
<path fill-rule="evenodd" clip-rule="evenodd" d="M48.0468 192.207C48.531 191.206 49.6565 190.749 50.5587 191.185C51.4609 191.621 51.8001 192.788 51.316 193.789C50.8318 194.789 49.7063 195.247 48.8041 194.81C47.9019 194.374 47.5627 193.207 48.0468 192.206V192.207Z" fill="white"/>
<path fill-rule="evenodd" clip-rule="evenodd" d="M45.7895 196.871C46.2737 195.87 47.3992 195.412 48.3014 195.849C49.2036 196.285 49.5428 197.452 49.0586 198.452C48.5745 199.453 47.449 199.911 46.5468 199.474C45.6446 199.037 45.3053 197.871 45.7895 196.87V196.871Z" fill="white"/>
<defs>
<clipPath id="clip0_56_10713">
<rect width="207" height="200" fill="white"/>
</clipPath>
</defs>
</svg>
