<svg width="207" height="200" viewBox="0 0 207 200" fill="none" xmlns="http://www.w3.org/2000/svg">
<g clip-path="url(#clip0_40_2148)">
<path opacity="0.6" d="M168.487 144.157C195.829 117.065 195.829 73.1412 168.487 46.0497C141.146 18.9582 96.8163 18.9582 69.4749 46.0497C42.1334 73.1412 42.1334 117.065 69.4748 144.157C96.8163 171.248 141.146 171.248 168.487 144.157Z" fill="#CBCFFF"/>
<path opacity="0.3" d="M204.389 127.442C211.049 141.997 204.55 159.14 189.86 165.748C175.171 172.347 157.87 165.908 151.201 151.353C144.541 136.797 151.039 119.654 165.729 113.047C180.419 106.448 197.72 112.887 204.389 127.442Z" fill="#DA97B8"/>
<path d="M130.005 104.72C145.528 138.626 130.379 178.584 96.1595 193.965C61.9402 209.347 21.6136 194.336 6.09034 160.43C-9.43296 126.523 5.71608 86.5739 39.9354 71.1841C74.1547 55.8028 114.481 70.8133 130.005 104.72Z" fill="#CAE1FC"/>
<path d="M35.6655 156.3C35.6655 162.739 30.4004 167.956 23.9019 167.956C17.4033 167.956 12.1382 162.739 12.1382 156.3C12.1382 149.861 17.4033 144.644 23.9019 144.644C30.4004 144.644 35.6655 149.861 35.6655 156.3Z" fill="#BFD4F8"/>
<path d="M127.589 7.30721C127.589 11.3443 124.288 14.6144 120.214 14.6144C116.14 14.6144 112.839 11.3443 112.839 7.30721C112.839 3.27012 116.14 0 120.214 0C124.288 0 127.589 3.27012 127.589 7.30721Z" fill="#BFD4F8"/>
<path d="M186.892 162.234C186.892 162.588 186.663 162.874 186.373 162.874C186.084 162.874 185.854 162.588 185.854 162.234V160.169C185.854 159.815 186.093 159.528 186.373 159.528C186.654 159.528 186.892 159.815 186.892 160.169V162.234Z" fill="#2E3054"/>
<path d="M186.892 154.117C186.892 154.471 186.663 154.758 186.373 154.758C186.084 154.758 185.854 154.471 185.854 154.117V152.052C185.854 151.698 186.093 151.42 186.373 151.42C186.654 151.42 186.892 151.707 186.892 152.052V154.117Z" fill="#2E3054"/>
<path d="M191.085 159.233C191.392 159.41 191.528 159.756 191.383 160C191.239 160.244 190.873 160.303 190.567 160.135L188.763 159.098C188.457 158.921 188.321 158.576 188.466 158.331C188.61 158.087 188.976 158.028 189.282 158.205L191.094 159.241L191.085 159.233Z" fill="#2E3054"/>
<path d="M183.992 155.179C184.298 155.356 184.434 155.702 184.289 155.946C184.145 156.19 183.779 156.249 183.473 156.072L181.67 155.036C181.363 154.859 181.227 154.513 181.372 154.269C181.516 154.024 181.882 153.965 182.188 154.142L183.992 155.179Z" fill="#2E3054"/>
<path d="M190.558 154.142C190.864 153.965 191.23 154.024 191.375 154.269C191.519 154.513 191.383 154.859 191.077 155.036L189.265 156.072C188.959 156.249 188.593 156.19 188.449 155.946C188.304 155.702 188.44 155.356 188.746 155.179L190.55 154.142H190.558Z" fill="#2E3054"/>
<path d="M183.473 158.205C183.779 158.028 184.145 158.087 184.289 158.331C184.434 158.576 184.298 158.921 183.992 159.098L182.188 160.135C181.882 160.312 181.516 160.253 181.372 160.008C181.227 159.764 181.355 159.418 181.67 159.241L183.473 158.205Z" fill="#2E3054"/>
<path opacity="0.3" d="M76.2299 19.5618C82.89 34.1172 76.3915 51.2601 61.7018 57.8677C47.012 64.4754 29.711 58.0279 23.0424 43.4724C16.3822 28.917 22.8808 11.7742 37.5705 5.1665C52.2602 -1.44117 69.5612 5.00636 76.2299 19.5618Z" fill="#DA97B8"/>
<g clip-path="url(#clip1_40_2148)">
<path d="M178.83 70.4674V163.119C178.83 164.016 178.104 164.746 177.208 164.746H40.5356C39.6415 164.746 38.9133 164.018 38.9133 163.119V70.4674C38.9133 69.5709 39.639 68.8408 40.5356 68.8408L177.208 68.8408C178.102 68.8408 178.83 69.5684 178.83 70.4674Z" fill="#C2D4EA"/>
<path d="M177.465 68.8383H40.2778C39.5241 68.8383 38.9131 69.4509 38.9131 70.2066V152.2C38.9131 152.956 39.5241 153.568 40.2778 153.568H177.465C178.219 153.568 178.83 152.956 178.83 152.2V70.2066C178.83 69.4509 178.219 68.8383 177.465 68.8383Z" fill="#2C4482"/>
<path d="M170.273 147.067H47.0912C45.2758 147.067 43.8046 145.589 43.8096 143.766L43.9904 77.7113C43.9953 75.8985 45.464 74.4308 47.272 74.4308H170.454C172.269 74.4308 173.74 75.9084 173.735 77.7312L173.554 143.786C173.55 145.599 172.081 147.067 170.273 147.067Z" fill="#486ED1"/>
<path d="M161.34 100.434C150.561 116.156 137.192 130.081 121.888 141.42C119.238 143.384 116.529 145.264 113.77 147.067H170.273C172.081 147.067 173.55 145.599 173.555 143.786L173.731 79.2759C170.11 86.6118 165.969 93.6894 161.342 100.437L161.34 100.434Z" fill="#3B65C4"/>
<path d="M207 190.558H10.7407V192.388C10.7407 193.414 11.5977 193.34 11.5977 193.34H206.143C206.143 193.34 207 193.412 207 192.388V190.558Z" fill="#2C4482"/>
<path d="M206.53 191.092H11.2114C10.783 191.092 10.5774 190.561 10.8969 190.273L38.8862 164.893C38.9729 164.816 39.0843 164.771 39.2007 164.771H178.538C178.654 164.771 178.766 164.813 178.852 164.893L206.844 190.273C207.164 190.561 206.958 191.092 206.53 191.092Z" fill="#E2EAF5"/>
<path d="M136.58 188.249H81.1781C80.4549 188.249 80.1676 187.685 80.5317 187.009L83.2809 181.909C83.5706 181.372 84.3136 180.943 84.9378 180.943H132.818C133.442 180.943 134.185 181.372 134.474 181.909L137.224 187.009C137.588 187.685 137.3 188.249 136.577 188.249H136.58Z" fill="#C2D4EA"/>
<path d="M52.1612 167.309H46.7125C45.9521 167.309 45.489 167.167 45.6772 166.994L46.2295 166.484C46.4128 166.316 47.1657 166.179 47.9112 166.179H53.2534C53.9989 166.179 54.4745 166.316 54.3135 166.484L53.8305 166.994C53.6671 167.167 52.9166 167.309 52.1563 167.309H52.1612Z" fill="#C2D4EA"/>
<path d="M61.3496 167.309H55.9009C55.1405 167.309 54.6576 167.167 54.8185 166.994L55.2916 166.484C55.4501 166.316 56.1807 166.179 56.9237 166.179H62.266C63.0115 166.179 63.5068 166.316 63.3731 166.484L62.9719 166.994C62.8356 167.167 62.1075 167.309 61.3471 167.309H61.3496Z" fill="#C2D4EA"/>
<path d="M70.5386 167.309H65.0898C64.3295 167.309 63.8242 167.167 63.958 166.994L64.3518 166.484C64.483 166.316 65.1914 166.179 65.9369 166.179H71.2791C72.0246 166.179 72.5423 166.316 72.4358 166.484L72.1138 166.994C72.0048 167.167 71.2989 167.309 70.5386 167.309Z" fill="#C2D4EA"/>
<path d="M79.7268 167.309H74.2781C73.5177 167.309 72.9902 167.167 73.0967 166.994L73.4112 166.484C73.5152 166.316 74.2038 166.179 74.9492 166.179H80.2915C81.037 166.179 81.5769 166.316 81.4952 166.484L81.2525 166.994C81.1707 167.167 80.4872 167.309 79.7268 167.309Z" fill="#C2D4EA"/>
<path d="M88.9158 167.309H83.467C82.7067 167.309 82.1569 167.167 82.2361 166.994L82.4689 166.484C82.5457 166.316 83.2144 166.179 83.9574 166.179H89.2997C90.0452 166.179 90.6049 166.316 90.5504 166.484L90.387 166.994C90.3325 167.167 89.6712 167.309 88.9108 167.309H88.9158Z" fill="#C2D4EA"/>
<path d="M98.1041 167.309H92.6553C91.895 167.309 91.3229 167.167 91.3749 166.994L91.5284 166.484C91.5804 166.316 92.2244 166.179 92.9699 166.179H98.3121C99.0576 166.179 99.6396 166.316 99.6124 166.484L99.5307 166.994C99.5034 167.167 98.8644 167.309 98.1041 167.309Z" fill="#C2D4EA"/>
<path d="M107.293 167.309H101.844C101.084 167.309 100.489 167.167 100.514 166.994L100.588 166.484C100.613 166.316 101.237 166.179 101.983 166.179H107.325C108.07 166.179 108.672 166.316 108.672 166.484V166.994C108.667 167.167 108.051 167.309 107.293 167.309Z" fill="#C2D4EA"/>
<path d="M116.479 167.309H111.03C110.27 167.309 109.653 167.167 109.65 166.994L109.646 166.484C109.646 166.316 110.247 166.179 110.99 166.179H116.333C117.078 166.179 117.702 166.316 117.727 166.484L117.804 166.994C117.831 167.167 117.234 167.309 116.476 167.309H116.479Z" fill="#C2D4EA"/>
<path d="M125.668 167.309H120.219C119.458 167.309 118.819 167.167 118.79 166.994L118.706 166.484C118.678 166.316 119.258 166.179 120.003 166.179H125.346C126.091 166.179 126.737 166.316 126.789 166.484L126.946 166.994C127 167.167 126.425 167.309 125.668 167.309Z" fill="#C2D4EA"/>
<path d="M134.856 167.309H129.407C128.647 167.309 127.986 167.167 127.929 166.994L127.763 166.484C127.708 166.316 128.268 166.179 129.014 166.179H134.356C135.101 166.179 135.768 166.316 135.847 166.484L136.082 166.994C136.161 167.167 135.612 167.309 134.851 167.309H134.856Z" fill="#C2D4EA"/>
<path d="M144.045 167.309H138.596C137.836 167.309 137.152 167.167 137.068 166.994L136.823 166.484C136.741 166.316 137.281 166.179 138.024 166.179H143.366C144.112 166.179 144.8 166.316 144.904 166.484L145.221 166.994C145.328 167.167 144.8 167.309 144.04 167.309H144.045Z" fill="#C2D4EA"/>
<path d="M153.234 167.309H147.785C147.024 167.309 146.319 167.167 146.21 166.994L145.885 166.484C145.776 166.316 146.294 166.179 147.039 166.179H152.382C153.127 166.179 153.838 166.316 153.969 166.484L154.365 166.994C154.499 167.167 153.994 167.309 153.234 167.309Z" fill="#C2D4EA"/>
<path d="M162.422 167.309H156.973C156.213 167.309 155.485 167.167 155.348 166.994L154.945 166.484C154.811 166.316 155.306 166.179 156.052 166.179H161.394C162.14 166.179 162.87 166.316 163.029 166.484L163.504 166.994C163.665 167.167 163.182 167.309 162.422 167.309Z" fill="#C2D4EA"/>
<path d="M171.611 167.309H166.162C165.401 167.309 164.651 167.167 164.488 166.994L164.002 166.484C163.841 166.316 164.314 166.179 165.06 166.179H170.402C171.147 166.179 171.9 166.316 172.084 166.484L172.638 166.994C172.827 167.167 172.366 167.309 171.606 167.309H171.611Z" fill="#C2D4EA"/>
<path d="M50.8908 169.253H43.8446C43.6687 169.253 43.5622 169.219 43.6093 169.179L45.3653 167.552C45.4074 167.513 45.5807 167.48 45.7516 167.48H52.5923C52.7632 167.48 52.8697 167.513 52.8325 167.552L51.2821 169.179C51.2425 169.221 51.0691 169.253 50.8933 169.253H50.8908Z" fill="#C2D4EA"/>
<path d="M63.227 171.446H55.9257C55.7449 171.446 55.6284 171.409 55.6656 171.364L57.1467 169.621C57.1813 169.579 57.3547 169.544 57.5306 169.544H64.609C64.7848 169.544 64.9037 169.579 64.874 169.621L63.6134 171.364C63.5812 171.409 63.4078 171.446 63.2245 171.446H63.227Z" fill="#C2D4EA"/>
<path d="M63.715 173.8H56.1412C55.953 173.8 55.8316 173.761 55.8713 173.713L57.4019 171.839C57.439 171.794 57.6173 171.757 57.8006 171.757H65.1366C65.3199 171.757 65.4413 171.794 65.4116 171.839L64.1187 173.713C64.0865 173.761 63.9057 173.8 63.7175 173.8H63.715Z" fill="#C2D4EA"/>
<path d="M67.2914 176.341H59.4228C59.2272 176.341 59.0984 176.299 59.138 176.246L60.629 174.225C60.6662 174.175 60.847 174.136 61.0377 174.136H68.6511C68.8418 174.136 68.9706 174.175 68.9408 174.225L67.7074 176.246C67.6752 176.299 67.492 176.341 67.2963 176.341H67.2914Z" fill="#C2D4EA"/>
<path d="M41.1474 179.4H32.9693C32.7514 179.4 32.6275 179.351 32.6944 179.291L35.3792 176.803C35.4386 176.746 35.659 176.701 35.8671 176.701H43.7331C43.9412 176.701 44.0675 176.746 44.0155 176.803L41.6452 179.291C41.5883 179.351 41.3654 179.4 41.1474 179.4Z" fill="#C2D4EA"/>
<path d="M52.0696 179.4H43.8915C43.6735 179.4 43.5423 179.351 43.5992 179.291L45.9026 176.803C45.9546 176.746 46.1651 176.701 46.3756 176.701H54.2417C54.4497 176.701 54.5834 176.746 54.5389 176.803L52.5526 179.291C52.5055 179.351 52.29 179.4 52.0721 179.4H52.0696Z" fill="#C2D4EA"/>
<path d="M62.6599 179.4H54.4818C54.2639 179.4 54.1252 179.351 54.1723 179.291L56.1016 176.803C56.1462 176.746 56.3493 176.701 56.5598 176.701H64.4258C64.6339 176.701 64.7751 176.746 64.7379 176.803L63.1231 179.291C63.0835 179.351 62.8754 179.4 62.6575 179.4H62.6599Z" fill="#C2D4EA"/>
<path d="M76.0094 179.4H65.2184C64.9707 179.4 64.8048 179.346 64.8469 179.276L66.3824 176.818C66.422 176.753 66.6474 176.701 66.8877 176.701H77.2676C77.5053 176.701 77.6762 176.753 77.6465 176.818L76.5171 179.276C76.4849 179.346 76.2595 179.4 76.0094 179.4Z" fill="#C2D4EA"/>
<path d="M142.395 179.4H131.604C131.357 179.4 131.136 179.346 131.116 179.276L130.349 176.818C130.329 176.753 130.507 176.701 130.745 176.701H141.125C141.363 176.701 141.583 176.753 141.613 176.818L142.787 179.276C142.819 179.346 142.646 179.4 142.395 179.4Z" fill="#C2D4EA"/>
<path d="M153.32 179.4H145.258C145.043 179.4 144.842 179.351 144.812 179.291L143.552 176.803C143.524 176.748 143.668 176.701 143.876 176.701H151.631C151.839 176.701 152.034 176.746 152.072 176.803L153.644 179.291C153.681 179.351 153.538 179.4 153.322 179.4H153.32Z" fill="#C2D4EA"/>
<path d="M128.912 179.4H79.1177C78.5951 179.4 78.2236 179.284 78.2855 179.14L79.2416 176.947C79.301 176.813 79.7542 176.703 80.257 176.703H128.154C128.657 176.703 129.095 176.813 129.135 176.947L129.781 179.14C129.823 179.284 129.435 179.4 128.912 179.4Z" fill="#C2D4EA"/>
<path d="M77.5102 176.341H69.6417C69.446 176.341 69.3123 176.299 69.342 176.246L70.5284 174.225C70.5581 174.175 70.7339 174.136 70.9246 174.136H78.538C78.7288 174.136 78.8625 174.175 78.8402 174.225L77.9114 176.246C77.8867 176.299 77.7084 176.341 77.5127 176.341H77.5102Z" fill="#C2D4EA"/>
<path d="M87.7293 176.341H79.8608C79.6651 176.341 79.524 176.299 79.5463 176.246L80.4255 174.225C80.4478 174.175 80.6187 174.136 80.8069 174.136H88.4203C88.611 174.136 88.7522 174.175 88.7373 174.225L88.1132 176.246C88.0983 176.299 87.925 176.341 87.7293 176.341Z" fill="#C2D4EA"/>
<path d="M97.9479 176.341H90.0794C89.8838 176.341 89.7376 176.299 89.7525 176.246L90.3271 174.225C90.342 174.175 90.5054 174.136 90.6961 174.136H98.3095C98.5002 174.136 98.6464 174.175 98.6389 174.225L98.3194 176.246C98.312 176.299 98.1461 176.341 97.9504 176.341H97.9479Z" fill="#C2D4EA"/>
<path d="M108.165 176.341H100.296C100.1 176.341 99.9469 176.299 99.9544 176.246L100.224 174.225C100.232 174.175 100.39 174.136 100.578 174.136H108.192C108.383 174.136 108.534 174.175 108.534 174.225L108.519 176.246C108.519 176.299 108.36 176.341 108.165 176.341Z" fill="#C2D4EA"/>
<path d="M118.383 176.341H110.515C110.319 176.341 110.158 176.299 110.158 176.246L110.124 174.225C110.124 174.175 110.275 174.136 110.465 174.136H118.079C118.269 174.136 118.428 174.175 118.435 174.225L118.725 176.246C118.733 176.299 118.579 176.341 118.383 176.341Z" fill="#C2D4EA"/>
<path d="M128.603 176.341H120.734C120.538 176.341 120.372 176.299 120.363 176.246L120.023 174.225C120.016 174.175 120.162 174.136 120.353 174.136H127.966C128.157 174.136 128.32 174.175 128.335 174.225L128.929 176.246C128.944 176.299 128.798 176.341 128.603 176.341Z" fill="#C2D4EA"/>
<path d="M138.821 176.341H130.953C130.757 176.341 130.584 176.299 130.569 176.246L129.925 174.225C129.91 174.175 130.051 174.136 130.239 174.136H137.853C138.044 174.136 138.214 174.175 138.234 174.225L139.133 176.246C139.156 176.299 139.017 176.341 138.821 176.341Z" fill="#C2D4EA"/>
<path d="M149.038 176.341H141.169C140.973 176.341 140.795 176.299 140.77 176.246L139.822 174.225C139.799 174.175 139.933 174.136 140.124 174.136H147.737C147.928 174.136 148.104 174.175 148.134 174.225L149.34 176.246C149.372 176.299 149.236 176.341 149.04 176.341H149.038Z" fill="#C2D4EA"/>
<path d="M162.994 179.443H156.738C155.943 179.443 155.18 179.264 155.039 179.045L154.625 178.412C154.486 178.198 155.004 178.025 155.784 178.025H161.914C162.694 178.025 163.459 178.196 163.628 178.412L164.123 179.045C164.294 179.264 163.789 179.443 162.994 179.443Z" fill="#C2D4EA"/>
<path d="M173.713 179.443H167.457C166.662 179.443 165.872 179.264 165.696 179.045L165.186 178.412C165.015 178.198 165.508 178.025 166.285 178.025H172.415C173.195 178.025 173.988 178.196 174.186 178.412L174.778 179.045C174.984 179.264 174.506 179.443 173.708 179.443H173.713Z" fill="#C2D4EA"/>
<path d="M172.267 177.856H166.152C165.374 177.856 164.606 177.684 164.438 177.476L163.95 176.87C163.787 176.666 164.272 176.5 165.032 176.5H171.029C171.791 176.5 172.564 176.664 172.755 176.87L173.322 177.476C173.518 177.684 173.047 177.856 172.269 177.856H172.267Z" fill="#C2D4EA"/>
<path d="M184.432 179.443H178.176C177.381 179.443 176.566 179.264 176.356 179.045L175.749 178.412C175.544 178.198 176.012 178.025 176.792 178.025H182.922C183.702 178.025 184.519 178.196 184.752 178.412L185.44 179.045C185.678 179.264 185.227 179.443 184.432 179.443Z" fill="#C2D4EA"/>
<path d="M73.6417 173.8H66.068C65.8797 173.8 65.7534 173.761 65.7831 173.713L67.0289 171.839C67.0586 171.794 67.232 171.757 67.4153 171.757H74.7513C74.9346 171.757 75.0634 171.794 75.0386 171.839L74.0306 173.713C74.0058 173.761 73.83 173.8 73.6417 173.8Z" fill="#C2D4EA"/>
<path d="M83.5683 173.8H75.9945C75.8063 173.8 75.6725 173.761 75.6973 173.713L76.6558 171.839C76.6781 171.794 76.8465 171.757 77.0273 171.757H84.3633C84.5466 171.757 84.6803 171.794 84.663 171.839L83.9423 173.713C83.9249 173.761 83.7565 173.8 83.5683 173.8Z" fill="#C2D4EA"/>
<path d="M93.4952 173.8H85.9214C85.7332 173.8 85.5945 173.761 85.6118 173.713L86.2855 171.839C86.3028 171.794 86.4638 171.757 86.6446 171.757H93.9806C94.1639 171.757 94.3026 171.794 94.2927 171.839L93.8568 173.713C93.8444 173.761 93.6834 173.8 93.4952 173.8Z" fill="#C2D4EA"/>
<path d="M103.36 173.8H95.7859C95.5976 173.8 95.4515 173.761 95.4614 173.713L95.8503 171.839C95.8602 171.794 96.0162 171.757 96.197 171.757H103.533C103.716 171.757 103.86 171.794 103.857 171.839L103.704 173.713C103.699 173.761 103.543 173.8 103.355 173.8H103.36Z" fill="#C2D4EA"/>
<path d="M113.287 173.8H105.713C105.525 173.8 105.374 173.761 105.376 173.713L105.48 171.839C105.483 171.794 105.634 171.757 105.814 171.757H113.15C113.334 171.757 113.485 171.794 113.487 171.839L113.621 173.713C113.623 173.761 113.475 173.8 113.287 173.8Z" fill="#C2D4EA"/>
<path d="M122.787 173.8H115.213C115.025 173.8 114.869 173.761 114.864 173.713L114.695 171.839C114.69 171.794 114.837 171.757 115.02 171.757H122.356C122.539 171.757 122.695 171.794 122.705 171.839L123.111 173.713C123.121 173.761 122.978 173.8 122.789 173.8H122.787Z" fill="#C2D4EA"/>
<path d="M132.624 173.8H125.051C124.862 173.8 124.699 173.761 124.689 173.713L124.238 171.839C124.228 171.794 124.367 171.757 124.55 171.757H131.886C132.07 171.757 132.231 171.794 132.248 171.839L132.936 173.713C132.954 173.761 132.815 173.8 132.627 173.8H132.624Z" fill="#C2D4EA"/>
<path d="M142.46 173.8H134.886C134.698 173.8 134.529 173.761 134.51 173.713L133.776 171.839C133.759 171.794 133.893 171.757 134.076 171.757H141.412C141.595 171.757 141.761 171.794 141.786 171.839L142.757 173.713C142.782 173.761 142.65 173.8 142.46 173.8Z" fill="#C2D4EA"/>
<path d="M152.233 173.8H144.659C144.471 173.8 144.297 173.761 144.27 173.713L143.255 171.839C143.23 171.794 143.359 171.757 143.542 171.757H150.878C151.061 171.757 151.232 171.794 151.264 171.839L152.517 173.713C152.55 173.761 152.423 173.8 152.235 173.8H152.233Z" fill="#C2D4EA"/>
<path d="M162.008 173.8H154.435C154.246 173.8 154.066 173.761 154.033 173.713L152.738 171.839C152.706 171.794 152.83 171.757 153.013 171.757H160.349C160.532 171.757 160.711 171.794 160.748 171.839L162.281 173.713C162.32 173.761 162.199 173.8 162.011 173.8H162.008Z" fill="#C2D4EA"/>
<path d="M159.158 176.341H151.289C151.094 176.341 150.908 176.299 150.876 176.246L149.625 174.225C149.595 174.175 149.724 174.136 149.915 174.136H157.528C157.719 174.136 157.9 174.175 157.937 174.225L159.443 176.246C159.482 176.299 159.353 176.341 159.158 176.341Z" fill="#C2D4EA"/>
<path d="M179.325 173.8H164.7C164.44 173.8 164.185 173.746 164.131 173.681L162.595 171.868C162.543 171.806 162.704 171.757 162.954 171.757H177.121C177.371 171.757 177.629 171.806 177.698 171.868L179.665 173.681C179.737 173.748 179.585 173.8 179.325 173.8Z" fill="#C2D4EA"/>
<path d="M181.988 176.341H161.612C161.302 176.341 160.998 176.274 160.936 176.192L159.465 174.277C159.405 174.2 159.601 174.138 159.901 174.138H179.613C179.912 174.138 180.225 174.2 180.309 174.277L182.387 176.192C182.476 176.274 182.298 176.341 181.985 176.341H181.988Z" fill="#C2D4EA"/>
<path d="M53.8724 173.8H39.0914C38.8313 173.8 38.6778 173.746 38.7496 173.681L40.7037 171.871C40.7706 171.809 41.0307 171.757 41.2833 171.757H55.6012C55.8538 171.757 56.0148 171.806 55.9627 171.871L54.4445 173.681C54.39 173.748 54.1325 173.8 53.8724 173.8Z" fill="#C2D4EA"/>
<path d="M56.9486 176.341H36.278C35.966 176.341 35.7852 176.274 35.8743 176.192L37.9448 174.28C38.0291 174.203 38.3411 174.138 38.6458 174.138H58.6452C58.9473 174.138 59.1455 174.2 59.086 174.28L57.6322 176.192C57.5703 176.274 57.2657 176.341 56.9536 176.341H56.9486Z" fill="#C2D4EA"/>
<path d="M72.7454 171.446H65.444C65.2632 171.446 65.1394 171.409 65.1716 171.364L66.3901 169.621C66.4199 169.579 66.5858 169.544 66.7616 169.544H73.8401C74.0159 169.544 74.1398 169.579 74.115 169.621L73.1169 171.364C73.0921 171.409 72.9237 171.446 72.7404 171.446H72.7454Z" fill="#C2D4EA"/>
<path d="M82.2064 171.446H74.9051C74.7243 171.446 74.5955 171.409 74.6202 171.364L75.5762 169.621C75.5985 169.579 75.762 169.544 75.9378 169.544H83.0163C83.1921 169.544 83.3209 169.579 83.3036 169.621L82.568 171.364C82.5482 171.409 82.3872 171.446 82.2039 171.446H82.2064Z" fill="#C2D4EA"/>
<path d="M91.724 171.446H84.4252C84.2444 171.446 84.1106 171.409 84.128 171.364L84.819 169.621C84.8363 169.579 84.9924 169.544 85.1682 169.544H92.2466C92.4225 169.544 92.5562 169.579 92.5463 169.621L92.0757 171.364C92.0634 171.409 91.9073 171.446 91.724 171.446Z" fill="#C2D4EA"/>
<path d="M101.242 171.446H93.9434C93.7626 171.446 93.6239 171.409 93.6338 171.364L94.0598 169.621C94.0697 169.579 94.2208 169.544 94.3966 169.544H101.475C101.651 169.544 101.79 169.579 101.785 169.621L101.579 171.364C101.574 171.409 101.423 171.446 101.24 171.446H101.242Z" fill="#C2D4EA"/>
<path d="M110.703 171.446H103.404C103.223 171.446 103.077 171.409 103.082 171.364L103.246 169.621C103.251 169.579 103.397 169.544 103.573 169.544H110.651C110.827 169.544 110.97 169.579 110.973 169.621L111.03 171.364C111.03 171.409 110.886 171.446 110.703 171.446Z" fill="#C2D4EA"/>
<path d="M119.949 171.446H112.647C112.466 171.446 112.315 171.409 112.313 171.364L112.221 169.621C112.221 169.579 112.36 169.544 112.536 169.544H119.614C119.79 169.544 119.939 169.579 119.946 169.621L120.258 171.364C120.266 171.409 120.124 171.446 119.944 171.446H119.949Z" fill="#C2D4EA"/>
<path d="M129.546 171.446H122.244C122.064 171.446 121.908 171.409 121.898 171.364L121.539 169.621C121.529 169.579 121.665 169.544 121.843 169.544H128.922C129.098 169.544 129.251 169.579 129.266 169.621L129.845 171.364C129.86 171.409 129.724 171.446 129.543 171.446H129.546Z" fill="#C2D4EA"/>
<path d="M139.027 171.446H131.726C131.545 171.446 131.384 171.409 131.366 171.364L130.745 169.621C130.73 169.579 130.861 169.544 131.037 169.544H138.115C138.291 169.544 138.452 169.579 138.472 169.621L139.314 171.364C139.337 171.409 139.205 171.446 139.024 171.446H139.027Z" fill="#C2D4EA"/>
<path d="M148.351 171.446H141.05C140.869 171.446 140.703 171.409 140.681 171.364L139.802 169.621C139.78 169.579 139.906 169.544 140.082 169.544H147.16C147.336 169.544 147.502 169.579 147.527 169.621L148.626 171.364C148.654 171.409 148.53 171.446 148.349 171.446H148.351Z" fill="#C2D4EA"/>
<path d="M158.065 171.446H150.766C150.586 171.446 150.412 171.409 150.385 171.364L149.236 169.621C149.209 169.579 149.327 169.544 149.506 169.544H156.584C156.76 169.544 156.931 169.579 156.963 169.621L158.333 171.364C158.367 171.409 158.249 171.446 158.068 171.446H158.065Z" fill="#C2D4EA"/>
<path d="M167.351 171.446H160.049C159.869 171.446 159.69 171.409 159.656 171.364L158.249 169.621C158.214 169.579 158.331 169.544 158.506 169.544H165.585C165.761 169.544 165.937 169.579 165.976 169.621L167.603 171.364C167.645 171.409 167.531 171.446 167.351 171.446Z" fill="#C2D4EA"/>
<path d="M176.908 171.446H169.607C169.426 171.446 169.243 171.409 169.2 171.364L167.529 169.621C167.489 169.579 167.598 169.544 167.774 169.544H174.852C175.028 169.544 175.209 169.579 175.253 169.621L177.146 171.364C177.195 171.409 177.086 171.446 176.905 171.446H176.908Z" fill="#C2D4EA"/>
<path d="M60.2106 169.253H53.1644C52.9885 169.253 52.8771 169.219 52.9167 169.179L54.4225 167.552C54.4597 167.513 54.6256 167.48 54.7965 167.48H61.6372C61.8081 167.48 61.9195 167.513 61.8898 167.552L60.5895 169.179C60.5573 169.221 60.3865 169.253 60.2106 169.253Z" fill="#C2D4EA"/>
<path d="M69.2457 169.253H62.1995C62.0236 169.253 61.9072 169.219 61.9394 169.179L63.2026 167.552C63.2323 167.513 63.3957 167.48 63.5666 167.48H70.4073C70.5782 167.48 70.6946 167.513 70.6698 167.552L69.6123 169.179C69.585 169.221 69.4216 169.253 69.2457 169.253Z" fill="#C2D4EA"/>
<path d="M78.5085 169.253H71.4623C71.2864 169.253 71.1651 169.219 71.1923 169.179L72.2077 167.552C72.2325 167.513 72.391 167.48 72.5594 167.48H79.4001C79.571 167.48 79.6924 167.513 79.6726 167.552L78.8627 169.179C78.8429 169.221 78.6819 169.253 78.5085 169.253Z" fill="#C2D4EA"/>
<path d="M87.5411 169.253H80.4948C80.319 169.253 80.1927 169.219 80.2125 169.179L80.9852 167.552C81.005 167.513 81.1561 167.48 81.327 167.48H88.1677C88.3386 167.48 88.4649 167.513 88.45 167.552L87.8829 169.179C87.868 169.221 87.7144 169.253 87.5386 169.253H87.5411Z" fill="#C2D4EA"/>
<path d="M96.8533 169.253H89.8071C89.6312 169.253 89.5 169.219 89.5148 169.179L90.0374 167.552C90.0498 167.513 90.1984 167.48 90.3693 167.48H97.21C97.3809 167.48 97.5121 167.513 97.5047 167.552L97.1877 169.179C97.1802 169.221 97.0316 169.253 96.8558 169.253H96.8533Z" fill="#C2D4EA"/>
<path d="M105.807 169.253H98.7605C98.5846 169.253 98.4484 169.219 98.4559 169.179L98.7382 167.552C98.7456 167.513 98.8893 167.48 99.0602 167.48H105.901C106.072 167.48 106.208 167.513 106.205 167.552L106.129 169.179C106.129 169.221 105.983 169.253 105.807 169.253Z" fill="#C2D4EA"/>
<path d="M115.107 169.253H108.061C107.885 169.253 107.744 169.219 107.744 169.179L107.778 167.552C107.778 167.513 107.917 167.48 108.088 167.48H114.929C115.099 167.48 115.241 167.513 115.246 167.552L115.417 169.179C115.421 169.221 115.283 169.253 115.107 169.253Z" fill="#C2D4EA"/>
<path d="M124.142 169.253H117.096C116.92 169.253 116.774 169.219 116.769 169.179L116.561 167.552C116.556 167.513 116.689 167.48 116.86 167.48H123.701C123.872 167.48 124.018 167.513 124.028 167.552L124.442 169.179C124.451 169.221 124.318 169.253 124.144 169.253H124.142Z" fill="#C2D4EA"/>
<path d="M133.424 169.253H126.378C126.202 169.253 126.051 169.219 126.039 169.179L125.581 167.552C125.571 167.513 125.699 167.48 125.868 167.48H132.709C132.879 167.48 133.031 167.513 133.045 167.552L133.709 169.179C133.727 169.221 133.598 169.253 133.422 169.253H133.424Z" fill="#C2D4EA"/>
<path d="M142.687 169.253H135.641C135.465 169.253 135.309 169.219 135.292 169.179L134.586 167.552C134.569 167.513 134.693 167.48 134.863 167.48H141.704C141.875 167.48 142.031 167.513 142.053 167.552L142.965 169.179C142.987 169.221 142.866 169.253 142.69 169.253H142.687Z" fill="#C2D4EA"/>
<path d="M151.854 169.253H144.808C144.632 169.253 144.471 169.219 144.446 169.179L143.495 167.552C143.473 167.513 143.591 167.48 143.762 167.48H150.603C150.774 167.48 150.935 167.513 150.962 167.552L152.119 169.179C152.148 169.221 152.03 169.253 151.854 169.253Z" fill="#C2D4EA"/>
<path d="M160.666 169.253H153.62C153.444 169.253 153.278 169.219 153.246 169.179L152.059 167.552C152.03 167.513 152.146 167.48 152.317 167.48H159.158C159.328 167.48 159.494 167.513 159.527 167.552L160.921 169.179C160.956 169.221 160.844 169.253 160.668 169.253H160.666Z" fill="#C2D4EA"/>
<path d="M173.872 169.253H163.333C162.846 169.253 162.368 169.159 162.266 169.045L161.062 167.679C160.966 167.57 161.27 167.48 161.743 167.48H171.972C172.445 167.48 172.926 167.57 173.045 167.679L174.526 169.045C174.65 169.159 174.357 169.253 173.869 169.253H173.872Z" fill="#C2D4EA"/>
<path d="M52.9959 171.446H42.0785C41.5733 171.446 41.2736 171.344 41.4073 171.223L42.9875 169.758C43.1138 169.641 43.6141 169.544 44.1045 169.544H54.6924C55.1828 169.544 55.4949 169.638 55.3933 169.758L54.1104 171.223C54.0014 171.347 53.5036 171.446 52.9983 171.446H52.9959Z" fill="#C2D4EA"/>
<path d="M159.705 36.0975H95.667C93.2622 36.0975 91.313 38.0519 91.313 40.4633V85.8692C91.313 88.2806 93.2622 90.235 95.667 90.235H145.654C152.334 90.235 155.351 84.8064 155.351 78.1062V40.4633C155.351 38.0519 157.3 36.0975 159.705 36.0975Z" fill="#97CAFF"/>
<path d="M146.551 85.8717V56.2699C146.551 53.8586 144.602 51.9042 142.197 51.9042H141.89C139.485 51.9042 137.536 53.8586 137.536 56.2699V90.2375H150.907C148.503 90.2375 146.553 88.2831 146.553 85.8717H146.551Z" fill="#8DB0DA"/>
<path d="M164.332 74.4308V40.4633C164.332 38.0519 162.382 36.0975 159.978 36.0975H159.67C157.266 36.0975 155.316 38.0519 155.316 40.4633V74.4308H164.332Z" fill="#8DB0DA"/>
<path d="M150.997 36.0975H150.908C148.503 36.0975 146.554 38.0519 146.554 40.4633V85.8692C146.554 88.2806 148.503 90.235 150.908 90.235H150.997C153.402 90.235 155.351 88.2806 155.351 85.8692V40.4633C155.351 38.0519 153.402 36.0975 150.997 36.0975Z" fill="#97CAFF"/>
<path d="M141.89 51.9017H73.2725C70.8676 51.9017 68.9185 53.8561 68.9185 56.2675L69.5773 147.064H138.195L137.536 56.2675C137.536 53.8561 139.485 51.9017 141.89 51.9017Z" fill="#DDE6F5"/>
<g style="mix-blend-mode:multiply">
<path d="M88.7335 81.1657C94.1309 80.4849 97.9493 75.4928 97.2621 70.0156C96.5749 64.5384 91.6424 60.6501 86.245 61.3309C80.8476 62.0117 77.0292 67.0038 77.7164 72.481C78.4036 77.9582 83.3361 81.8465 88.7335 81.1657Z" fill="#C2D4EA"/>
</g>
<path d="M128.741 67.4104H104.147C103.332 67.4104 102.664 66.7349 102.661 65.908C102.661 65.081 103.322 64.4055 104.137 64.4055H128.731C129.546 64.4055 130.215 65.081 130.217 65.908C130.217 66.7349 129.556 67.4104 128.741 67.4104Z" fill="white"/>
<path d="M128.761 74.2495H104.167C103.352 74.2495 102.684 73.574 102.681 72.7471C102.681 71.9201 103.342 71.2446 104.157 71.2446H128.751C129.566 71.2446 130.235 71.9201 130.237 72.7471C130.237 73.574 129.576 74.2495 128.761 74.2495Z" fill="#C2D4EA"/>
<path d="M91.3265 79.2526C96.0708 76.1951 97.5419 70.0118 94.6125 65.4417C91.6831 60.8717 85.4623 59.6454 80.7181 62.7029C75.9739 65.7603 74.5027 71.9437 77.4321 76.5137C80.3616 81.0838 86.5823 82.31 91.3265 79.2526Z" fill="#C2D4EA"/>
<mask id="mask0_40_2148" style="mask-type:luminance" maskUnits="userSpaceOnUse" x="75" y="61" width="22" height="20">
<path d="M91.3265 79.2526C96.0708 76.1951 97.5419 70.0118 94.6125 65.4417C91.6831 60.8717 85.4623 59.6454 80.7181 62.7029C75.9739 65.7603 74.5027 71.9437 77.4321 76.5137C80.3616 81.0838 86.5823 82.31 91.3265 79.2526Z" fill="white"/>
</mask>
<g mask="url(#mask0_40_2148)">
<path d="M83.1816 71.1454C83.293 71.5253 83.4441 71.9127 83.7611 72.1784C84.2267 72.5658 84.9301 72.5956 85.5716 72.6056C86.3121 72.6155 87.1245 72.6056 87.709 72.171C88.0384 71.9251 88.2489 71.575 88.405 71.2174C88.9449 69.9831 88.9127 68.5701 88.3207 67.3905C88.2142 67.1769 88.083 66.9658 87.8873 66.8119C87.6297 66.6132 87.2805 66.5337 86.9387 66.5039C86.0694 66.4294 85.1629 66.6455 84.4323 67.1024C83.7289 67.542 83.1444 68.2324 82.9116 68.9774C82.7011 69.6479 82.9958 70.5071 83.1841 71.1454H83.1816Z" fill="#492817"/>
<path d="M87.2337 76.1866C86.877 76.4176 85.8566 76.276 85.5173 76.4648C85.178 76.6535 84.0462 76.7131 83.7192 76.6237C83.7787 74.9797 84.6059 73.3158 84.6752 71.8035C85.2969 73.1942 86.03 72.4318 86.7483 71.4781C86.6789 72.9558 87.2708 74.6991 87.2337 76.1866Z" fill="#FFAA81"/>
<path d="M84.6009 72.9806C84.6505 73.147 84.7421 73.3109 84.8238 73.4425C84.9922 73.7132 85.2597 73.9019 85.5792 73.9913C85.9507 74.0956 86.342 73.9094 86.6343 73.6685C86.7309 73.589 86.8225 73.5071 86.9117 73.4226C86.8052 72.7546 86.7185 72.094 86.7482 71.4781C86.03 72.4293 85.2969 73.1942 84.6752 71.8035C84.7148 71.8904 84.6505 72.1139 84.6406 72.2107C84.6207 72.3597 84.591 72.5087 84.5687 72.6578C84.5539 72.7621 84.5687 72.8713 84.6034 72.9806H84.6009Z" fill="#F4946E"/>
<path d="M90.8991 82.9786C90.8446 82.4124 90.7901 81.8437 90.7282 81.2775C90.6787 80.8181 90.6242 80.3612 90.5672 79.9042C90.5078 79.4349 90.4533 78.9556 90.3889 78.4713C90.213 77.1179 90.057 75.4366 89.5245 74.2049C89.5072 74.1676 89.4973 74.1304 89.4874 74.0906C89.4601 74.0832 87.511 73.3779 86.8967 73.3282C86.8967 73.7777 86.5029 74.8332 85.6138 74.8232C85.059 74.8183 84.4175 74.0137 84.4175 73.3282C83.5928 73.4027 81.7724 74.1006 81.765 74.1006C81.3241 74.1925 80.9452 76.7305 80.8808 77.0608C80.6034 78.4887 80.2988 79.8868 80.0585 81.3148C80.0585 81.3297 80.0536 81.3421 80.0511 81.357C79.9619 81.8959 79.8728 82.4373 79.7886 82.9761H90.8991V82.9786Z" fill="#FFD22E"/>
<path d="M81.7651 74.103C81.7651 74.103 81.78 74.1005 81.7874 74.098C81.297 74.2445 80.3881 74.8008 79.9051 75.0641C79.1126 75.4962 78.4389 76.189 77.9039 77.0209C77.4235 77.7684 77.0569 78.6029 76.7646 79.477C76.9999 79.9091 77.317 80.2717 77.7231 80.5573C78.2977 80.9596 79.4643 81.3867 79.5782 81.4364C79.8581 80.9422 80.1132 80.6417 80.2271 80.3785C80.4228 79.3379 80.6729 78.1111 80.8785 77.0632C80.9429 76.7329 81.3218 74.1949 81.7627 74.103H81.7651Z" fill="#F4C42A"/>
<path d="M93.1875 76.9092C92.7169 76.0649 92.0928 75.3646 91.3324 74.9275C90.8247 74.6345 89.4576 74.0856 89.4873 74.0906C89.4947 74.1279 90.2105 77.1178 90.3863 78.4713C90.4483 78.953 90.4458 78.9655 90.5052 79.4348C90.5622 79.8918 91.0823 81.0366 91.4563 81.5109C91.9838 81.3644 92.8284 80.9 93.2147 80.6591C93.8042 80.2891 93.9107 80.0557 94.1286 79.78C93.9033 78.8934 93.611 77.6691 93.1875 76.9117V76.9092Z" fill="#F4C42A"/>
<path d="M83.2213 70.0427C83.303 70.7555 83.464 71.4756 83.8503 72.0741C84.2367 72.6726 84.8856 73.1345 85.6162 73.1594C86.54 73.1892 87.397 72.5137 87.8403 71.6967C88.2836 70.8796 88.3951 69.9409 88.4818 69.0295C88.5536 68.2547 88.6056 67.4352 88.2589 66.7498C88.1326 66.5014 87.9542 66.2755 87.719 66.1215C87.553 66.0122 87.3623 65.9402 87.1691 65.8856C86.3419 65.6521 85.4057 65.7341 84.6404 66.1637C83.137 67.008 83.0504 68.5676 83.2213 70.0477V70.0427Z" fill="#FFAA81"/>
<path d="M89.2325 66.8591C89.4727 66.6157 89.6387 66.3077 89.6585 65.9775C89.6635 65.8682 89.5941 65.7192 89.4901 65.7664C89.4678 65.8359 89.448 65.9054 89.4257 65.975C89.2746 66.0172 89.1384 65.893 89.0368 65.7813C88.918 65.6472 88.7966 65.5131 88.6851 65.374C88.6133 65.2622 88.5341 65.1555 88.4474 65.0536C88.4325 65.0313 88.4177 65.0089 88.4028 64.9841C88.2691 64.773 88.1601 64.547 87.9942 64.3608C87.5236 63.8368 86.7186 63.7722 85.9954 63.7995C85.5496 63.8169 85.0939 63.8591 84.6754 64.028C84.2568 64.1969 83.8754 64.5123 83.7193 64.9295C83.702 64.9791 83.6871 65.0313 83.6772 65.081C82.6816 65.6919 82.0872 66.946 82.3398 68.056C82.424 68.431 82.5924 68.811 82.5008 69.1909C82.5231 69.4095 82.538 69.6305 82.5479 69.8515C82.7039 70.0303 82.959 70.1197 83.1324 69.9608C83.2587 69.8465 83.276 69.6603 83.2859 69.4939C83.3107 69.0022 83.3379 68.513 83.3627 68.0213C83.3677 67.9294 83.3726 67.835 83.4197 67.7555C83.4667 67.6736 83.5509 67.619 83.6277 67.5643C83.9423 67.3359 84.2048 67.0379 84.393 66.7026C84.7125 67.0031 85.0815 67.2365 85.3936 67.3532C86.0574 67.6041 86.7954 67.6239 87.5112 67.542C87.7093 67.5196 87.9075 67.4873 88.1031 67.4402C88.1205 68.1206 88.1353 68.801 88.1527 69.484C88.1576 69.7348 88.2071 70.0452 88.4499 70.1172C88.6158 70.1669 88.7991 70.0676 88.9031 69.926C89.0071 69.7845 89.0467 69.6106 89.0814 69.4418C89.2523 68.6073 89.3588 67.7506 89.2449 66.9162C89.2424 66.8963 89.2375 66.8764 89.235 66.8566L89.2325 66.8591Z" fill="#492817"/>
<path d="M83.3975 70.3507C83.3826 69.9708 83.3059 69.5685 83.3133 69.1885C83.2514 69.1513 83.2217 69.1488 83.1498 69.1413C83.0854 69.1339 83.0186 69.1413 82.9616 69.1736C82.8625 69.2307 82.818 69.3599 82.7882 69.4766C82.6916 69.8565 82.6619 70.2638 82.761 70.6338C82.8601 71.0039 83.1028 71.3341 83.4371 71.4583C83.4817 71.4757 83.5065 71.4831 83.5535 71.4707C83.4594 71.1007 83.4148 70.7456 83.3975 70.3532V70.3507Z" fill="#F4946E"/>
<path d="M88.9029 69.4765C88.8806 69.3598 88.8459 69.2306 88.7518 69.1735C88.6973 69.1387 88.6304 69.1363 88.566 69.1412C88.4199 69.1561 88.2837 69.2381 88.1797 69.3523C88.1648 69.3573 88.1499 69.3647 88.1376 69.3747C88.1376 69.5982 88.1276 69.8217 88.1202 70.0477C88.1054 70.4897 88.1078 70.7505 88.0286 71.19C88.0212 71.2347 87.9592 71.4657 87.9419 71.5054C87.984 71.5128 88.0657 71.4731 88.1078 71.4582C88.4496 71.334 88.7171 71.0038 88.8434 70.6337C88.9697 70.2637 88.9697 69.8564 88.9004 69.4765H88.9029Z" fill="#F4946E"/>
</g>
<path d="M84.4552 98.2091H80.2968C79.0882 98.2091 78.1074 97.2232 78.1074 96.0138V91.8442C78.1074 90.6348 79.0907 89.6489 80.2968 89.6489H84.4552C85.6639 89.6489 86.6446 90.6348 86.6446 91.8442V96.0138C86.6446 97.2232 85.6614 98.2091 84.4552 98.2091ZM80.2968 90.538C79.5786 90.538 78.9941 91.124 78.9941 91.8442V96.0138C78.9941 96.734 79.5786 97.3201 80.2968 97.3201H84.4552C85.1735 97.3201 85.758 96.734 85.758 96.0138V91.8442C85.758 91.124 85.1735 90.538 84.4552 90.538H80.2968Z" fill="#8DB0DA"/>
<path d="M84.4552 110.76H80.2968C79.0882 110.76 78.1074 109.774 78.1074 108.565V104.395C78.1074 103.186 79.0907 102.2 80.2968 102.2H84.4552C85.6639 102.2 86.6446 103.186 86.6446 104.395V108.565C86.6446 109.774 85.6614 110.76 84.4552 110.76ZM80.2968 103.089C79.5786 103.089 78.9941 103.675 78.9941 104.395V108.565C78.9941 109.285 79.5786 109.871 80.2968 109.871H84.4552C85.1735 109.871 85.758 109.285 85.758 108.565V104.395C85.758 103.675 85.1735 103.089 84.4552 103.089H80.2968Z" fill="#8DB0DA"/>
<path d="M84.4552 123.135H80.2968C79.0882 123.135 78.1074 122.149 78.1074 120.939V116.77C78.1074 115.56 79.0907 114.574 80.2968 114.574H84.4552C85.6639 114.574 86.6446 115.56 86.6446 116.77V120.939C86.6446 122.149 85.6614 123.135 84.4552 123.135ZM80.2968 115.464C79.5786 115.464 78.9941 116.05 78.9941 116.77V120.939C78.9941 121.66 79.5786 122.246 80.2968 122.246H84.4552C85.1735 122.246 85.758 121.66 85.758 120.939V116.77C85.758 116.05 85.1735 115.464 84.4552 115.464H80.2968Z" fill="#8DB0DA"/>
<path d="M99.5481 90.9626H130.324C130.542 90.9626 130.717 91.139 130.717 91.3575V91.4345C130.717 91.653 130.542 91.8293 130.324 91.8293H99.5481C99.3301 91.8293 99.1543 91.653 99.1543 91.4345V91.3575C99.1543 91.139 99.3301 90.9626 99.5481 90.9626Z" fill="white"/>
<path d="M94.0696 93.4932H130.324C130.542 93.4932 130.717 93.6695 130.717 93.888V93.965C130.717 94.1835 130.542 94.3599 130.324 94.3599H94.0696C93.8516 94.3599 93.6758 94.1835 93.6758 93.965V93.888C93.6758 93.6695 93.8516 93.4932 94.0696 93.4932Z" fill="white"/>
<path d="M94.0696 96.0262H126.671C126.888 96.0262 127.064 96.2026 127.064 96.4211V96.4981C127.064 96.7166 126.888 96.8929 126.671 96.8929H94.0696C93.8516 96.8929 93.6758 96.7166 93.6758 96.4981V96.4211C93.6758 96.2026 93.8516 96.0262 94.0696 96.0262Z" fill="white"/>
<path d="M99.5481 103.101H130.324C130.542 103.101 130.717 103.278 130.717 103.496V103.573C130.717 103.792 130.542 103.968 130.324 103.968H99.5481C99.3301 103.968 99.1543 103.792 99.1543 103.573V103.496C99.1543 103.278 99.3301 103.101 99.5481 103.101Z" fill="white"/>
<path d="M94.0696 105.632H130.324C130.542 105.632 130.717 105.808 130.717 106.027V106.104C130.717 106.322 130.542 106.499 130.324 106.499H94.0696C93.8516 106.499 93.6758 106.322 93.6758 106.104V106.027C93.6758 105.808 93.8516 105.632 94.0696 105.632Z" fill="white"/>
<path d="M94.0696 108.162H108.41C108.628 108.162 108.804 108.339 108.804 108.557V108.634C108.804 108.853 108.628 109.029 108.41 109.029H94.0696C93.8516 109.029 93.6758 108.853 93.6758 108.634V108.557C93.6758 108.339 93.8516 108.162 94.0696 108.162Z" fill="white"/>
<path d="M99.5481 115.891H130.324C130.542 115.891 130.717 116.067 130.717 116.286V116.363C130.717 116.581 130.542 116.757 130.324 116.757H99.5481C99.3301 116.757 99.1543 116.581 99.1543 116.363V116.286C99.1543 116.067 99.3301 115.891 99.5481 115.891Z" fill="white"/>
<path d="M94.0696 118.421H130.324C130.542 118.421 130.717 118.598 130.717 118.816V118.893C130.717 119.112 130.542 119.288 130.324 119.288H94.0696C93.8516 119.288 93.6758 119.112 93.6758 118.893V118.816C93.6758 118.598 93.8516 118.421 94.0696 118.421Z" fill="white"/>
<path d="M94.0696 121.821C93.8516 121.821 93.6758 121.642 93.6758 121.426V121.349C93.6758 121.131 93.8541 120.954 94.0696 120.954H123.02C123.238 120.954 123.414 121.133 123.414 121.349V121.426C123.414 121.645 123.235 121.821 123.02 121.821" fill="white"/>
<path d="M130.284 130.19H79.43C79.1922 130.19 78.9966 129.994 78.9966 129.755C78.9966 129.517 79.1922 129.321 79.43 129.321H130.284C130.522 129.321 130.718 129.517 130.718 129.755C130.718 129.994 130.522 130.19 130.284 130.19Z" fill="white"/>
<path d="M106.344 132.72H79.43C79.1922 132.72 78.9966 132.524 78.9966 132.286C78.9966 132.048 79.1922 131.851 79.43 131.851H106.344C106.582 131.851 106.778 132.048 106.778 132.286C106.778 132.524 106.582 132.72 106.344 132.72Z" fill="white"/>
<path d="M106.344 137.893H79.43C79.1922 137.893 78.9966 137.697 78.9966 137.459C78.9966 137.22 79.1922 137.024 79.43 137.024H106.344C106.582 137.024 106.778 137.22 106.778 137.459C106.778 137.697 106.582 137.893 106.344 137.893Z" fill="white"/>
<path d="M127.292 135.251H79.43C79.1922 135.251 78.9966 135.055 78.9966 134.816C78.9966 134.578 79.1922 134.382 79.43 134.382H127.292C127.53 134.382 127.726 134.578 127.726 134.816C127.726 135.055 127.53 135.251 127.292 135.251Z" fill="white"/>
<path d="M83.3605 95.7605C83.1871 95.7605 83.0113 95.6984 82.8701 95.5742L80.4801 93.4782C80.1705 93.2051 80.1383 92.7332 80.4083 92.4203C80.6807 92.1099 81.1513 92.0776 81.4633 92.3483L83.3035 93.96L90.1541 86.4081C90.4315 86.1026 90.9046 86.0803 91.2092 86.3584C91.5138 86.6366 91.5361 87.1109 91.2587 87.4163L83.9153 95.5121C83.7667 95.6735 83.5661 95.758 83.363 95.758L83.3605 95.7605Z" fill="#F55D34"/>
<path d="M83.3605 107.899C83.1871 107.899 83.0113 107.837 82.8701 107.713L80.4801 105.617C80.1705 105.344 80.1383 104.872 80.4083 104.559C80.6807 104.249 81.1513 104.216 81.4633 104.487L83.3035 106.099L90.1541 98.5469C90.4315 98.2414 90.9046 98.2191 91.2092 98.4972C91.5138 98.7754 91.5361 99.2497 91.2587 99.5551L83.9153 107.651C83.7667 107.812 83.5661 107.897 83.363 107.897L83.3605 107.899Z" fill="#F55D34"/>
<path d="M83.3605 120.274C83.1871 120.274 83.0113 120.212 82.8701 120.088L80.4801 117.992C80.1705 117.718 80.1383 117.247 80.4083 116.934C80.6807 116.623 81.1513 116.591 81.4633 116.862L83.3035 118.473L90.1541 110.922C90.4315 110.616 90.9046 110.594 91.2092 110.872C91.5138 111.15 91.5361 111.624 91.2587 111.93L83.9153 120.026C83.7667 120.187 83.5661 120.271 83.363 120.271L83.3605 120.274Z" fill="#F55D34"/>
<path d="M115.357 123.77C115.357 123.77 121.279 120.473 122.314 119.623C123.349 118.774 123.723 118.116 123.347 115.287C122.97 112.459 122.47 109.382 122.188 108.972C121.905 108.565 121.279 108.344 120.496 108.028C119.714 107.713 118.554 107.085 118.993 106.96C119.431 106.834 120.246 107.023 120.402 107.149C120.558 107.276 121.311 107.465 121.311 107.465C121.311 107.465 121.561 106.804 121.279 106.521C120.996 106.238 119.367 106.206 119.179 106.176C118.99 106.143 118.802 105.736 119.711 105.547C120.62 105.359 120.87 105.391 121.279 105.547C121.685 105.704 122.72 106.364 122.941 106.648C123.161 106.931 123.129 108.093 123.255 108.532C123.382 108.972 125.197 113.559 125.635 115.193C126.074 116.827 127.547 118.491 125.071 121.287C122.596 124.083 114.857 131.278 114.857 131.278C114.857 131.278 112.789 129.549 112.662 127.54C112.536 125.529 115.357 123.77 115.357 123.77Z" fill="#FFAA81"/>
<path d="M122.549 123.723C122.549 123.723 122.51 123.684 122.455 123.616C122.326 123.462 122.195 123.311 122.061 123.162C121.764 122.834 121.447 122.529 121.12 122.233C121.086 122.203 121.053 122.176 121.019 122.146C121.006 122.139 120.969 122.114 120.91 122.072C120.754 121.972 120.598 121.878 120.442 121.779C120.382 121.742 120.12 121.625 120.09 121.605C119.981 121.57 119.869 121.538 119.758 121.506C119.664 121.478 119.575 121.446 119.488 121.414C117.541 122.559 115.362 123.773 115.362 123.773C115.362 123.773 112.541 125.531 112.667 127.543C112.794 129.554 114.862 131.28 114.862 131.28C114.862 131.28 119.396 127.066 122.633 123.833C122.604 123.79 122.577 123.756 122.554 123.723H122.549Z" fill="#FFD22E"/>
<path d="M107.209 192.237C107.043 193.578 106.889 195.438 106.916 196.863C106.916 196.863 107.028 196.908 107.209 196.983C107.1 197.911 107.063 198.845 107.011 199.779C106.069 199.642 105.321 199.404 105.321 199.404C104.893 198.391 104.705 195.147 104.663 192.493C105.477 192.699 106.396 192.297 107.206 192.237H107.209Z" fill="#492817"/>
<path d="M113.613 191.748C113.338 193.069 112.982 195.356 112.89 196.779C112.89 196.779 115.994 198.316 116.355 198.94C116.717 199.565 116.301 199.806 114.693 199.903C113.086 200 111.095 199.178 111.095 199.178C110.753 198.133 110.832 194.884 111.01 192.235C111.805 192.508 112.801 191.738 113.616 191.745L113.613 191.748Z" fill="#492817"/>
<path d="M113.274 145.629C112.321 145.629 111.622 145.947 111.11 146.431C110.624 145.982 109.965 145.681 109.076 145.649C104.935 145.502 103.442 148.458 103.558 151.612C103.57 151.962 103.771 176.473 104.621 192.535C105.255 192.518 106.634 192.498 107.268 192.493C107.521 187.762 109.131 173.512 110.53 163.105C110.847 173.52 110.936 187.692 111.015 192.411C111.649 192.441 112.833 192.51 113.467 192.55C116.172 178.074 118.55 152.136 118.574 151.785C118.805 148.639 117.42 145.629 113.274 145.624V145.629Z" fill="#492817"/>
<path d="M110.21 147.36C110.21 147.36 108.467 147.149 106.522 146.55C106.708 147.209 106.792 147.882 106.807 148.564C107.6 148.627 108.266 148.651 108.699 148.681C110.453 148.8 112.367 148.823 112.902 148.84C112.41 148.276 111.904 147.541 111.486 146.918C110.926 147.077 110.208 147.36 110.208 147.36H110.21Z" fill="#FFAA81"/>
<path d="M108.075 148.646C108.013 148.016 107.865 147.41 107.6 146.851C105.118 146.225 101.705 144.936 101.306 142.53C100.898 140.066 103.521 132.475 104.586 129.199C104.145 129.09 103.699 128.995 103.243 128.919C102.27 128.757 101.143 128.755 100.157 128.481C99.4043 130.523 96.5611 138.708 97.4948 143.267C98.483 148.088 105.301 148.495 108.078 148.646H108.075Z" fill="#FFAA81"/>
<path d="M106.022 121.131C106.035 121.059 106.047 120.984 106.062 120.912C105.995 120.8 105.93 120.686 105.876 120.569C105.396 119.524 105.46 118.235 106.079 117.264C106.797 116.137 108.898 115.059 109.99 116.283C111.134 117.564 111.518 119.996 110.867 121.548C110.75 121.823 110.602 122.089 110.381 122.29C110.136 122.516 109.829 122.64 109.499 122.693C109.438 123.39 109.289 124.135 109.247 124.771C109.197 125.534 109.138 126.435 108.764 126.862C108.457 127.215 108.08 127.063 107.756 126.899C107.018 126.527 106.228 126.09 105.812 124.96C105.717 124.699 105.643 124.406 105.628 124.083C105.611 123.703 105.673 123.311 105.732 122.929C105.829 122.33 105.926 121.729 106.022 121.131Z" fill="#FFAA81"/>
<path d="M110.314 118.617C110.614 118.535 110.946 118.533 111.263 118.491C111.402 118.471 111.53 118.399 111.615 118.287C111.949 117.858 112.073 117.361 111.818 116.728C111.676 116.38 111.402 116.104 111.265 115.757C111.124 115.399 111.166 115.2 111.179 114.818C111.191 114.371 111.137 114.003 110.995 113.72C110.901 113.534 110.701 113.427 110.493 113.447C110.493 113.447 110.493 113.447 110.49 113.447C109.987 113.494 109.517 113.623 109.061 113.777C108.979 113.805 108.893 113.812 108.806 113.797C106.901 113.489 104.38 114.445 103.781 115.595C103.721 115.709 103.677 115.831 103.659 115.955C103.647 116.057 103.605 116.154 103.535 116.231C103.389 116.392 103.28 116.571 103.231 116.772C102.951 117.902 104.558 118.893 104.774 120.05C104.823 120.321 104.796 120.594 104.841 120.867C104.999 121.833 106.2 122.685 107.508 122.757C108.816 122.829 110.067 122.114 110.289 121.168C110.324 121.021 110.334 120.867 110.262 120.723C110.161 120.53 109.923 120.393 109.752 120.227C109.205 119.698 109.509 118.836 110.319 118.615L110.314 118.617Z" fill="#492817"/>
<path d="M116.419 131.864C116.253 131.235 116.05 130.617 115.82 130.019C116.102 129.981 115.005 126.217 114.502 124.304C112.9 124.128 111.446 123.954 110.75 123.954C110.738 123.949 110.723 123.942 110.711 123.937C110.711 123.937 110.644 123.927 110.527 123.912C110.587 123.567 110.52 123.294 109.787 123.204C108.41 123.038 106.116 123.318 105.405 123.487C105.041 123.574 105.071 123.818 105.163 124.126C105.148 124.113 105.135 124.098 105.121 124.083C105.069 124.126 105.039 124.15 105.039 124.15C105.039 124.15 99.8031 123.924 98.374 134.201C98.9214 135.527 101.777 135.949 102.438 136.001C102.545 135.817 102.631 135.331 102.755 134.916C103.139 137.439 103.322 138.094 103.721 142.808C103.471 146.396 103.352 149.136 103.55 149.277C104.075 149.655 115.273 149.53 117.695 148.587C117.772 148.577 117.848 148.567 117.923 148.554C119.173 148.366 118.334 146.54 118.274 146.237C117.373 141.524 117.65 136.503 116.419 131.866V131.864Z" fill="#FFD22E"/>
<path d="M118.071 147.874C114.425 147.777 110.698 146.362 108.159 143.68C105.797 141.184 104.377 137.841 103.201 134.658C102.919 133.89 102.659 133.105 102.421 132.311C102.399 132.331 102.379 132.351 102.356 132.37C102.74 134.884 103.327 138.137 103.721 142.808C103.471 146.396 103.352 149.136 103.55 149.277C104.075 149.655 115.272 149.53 117.695 148.587C117.771 148.577 117.848 148.567 117.923 148.555C118.366 148.487 118.547 148.214 118.591 147.879C118.418 147.879 118.245 147.882 118.071 147.879V147.874Z" fill="#F4C42A"/>
<path d="M110.527 123.912C110.587 123.567 110.52 123.294 109.787 123.204C108.41 123.038 106.116 123.318 105.405 123.487C105.064 123.567 105.069 123.788 105.148 124.068C106.911 124.483 110.547 123.914 110.527 123.912Z" fill="#45446C"/>
<path d="M108.145 198.408C108.041 197.981 107.823 197.591 107.61 197.206C107.407 196.844 107.201 196.476 106.914 196.176C106.916 195.806 106.924 195.438 106.939 195.075C106.196 195.205 105.468 195.205 104.752 195.11C104.779 195.639 104.782 196.158 104.779 196.647C104.682 197.104 104.635 197.584 104.583 198.038C104.524 198.565 104.435 199.225 104.831 199.65C105.126 199.965 105.604 200.027 106.035 199.993C106.466 199.958 107.64 199.963 107.781 199.898C107.875 199.856 107.942 199.774 107.999 199.687C108.234 199.315 108.251 198.838 108.147 198.411L108.145 198.408Z" fill="#292951"/>
<path d="M116.355 198.942C116.1 198.497 114.458 197.594 113.529 197.107C113.356 196.796 113.172 196.491 112.935 196.23C112.969 195.815 113.011 195.406 113.061 195.001C112.31 195.068 111.585 195.006 110.879 194.854C110.864 195.336 110.857 195.81 110.857 196.26C110.847 196.29 110.834 196.317 110.824 196.349C110.671 196.888 110.624 197.484 110.559 198.038C110.5 198.565 110.411 199.225 110.807 199.65C111.102 199.965 111.58 200.027 112.011 199.992C112.442 199.958 113.616 199.963 113.757 199.898C113.769 199.893 113.779 199.886 113.792 199.878C114.096 199.911 114.401 199.923 114.693 199.906C116.3 199.809 116.717 199.568 116.355 198.942Z" fill="#292951"/>
<path d="M116.771 105.766L116.152 105.016L117.113 104.882L116.771 105.766Z" fill="white"/>
<path d="M116.291 105.215L116.152 105.016L116.387 104.964L116.291 105.215Z" fill="#092140"/>
<path d="M124.325 107.907L124.123 108.428C124.085 108.527 124.134 108.64 124.233 108.678L125.314 109.099C125.413 109.138 125.525 109.088 125.564 108.988L125.766 108.468C125.804 108.368 125.755 108.256 125.655 108.217L124.575 107.796C124.475 107.758 124.363 107.807 124.325 107.907Z" fill="#292951"/>
<path d="M116.885 105.47L124.399 108.408L124.285 108.701L116.771 105.766L116.885 105.47Z" fill="#8DB0DA"/>
<path d="M116.999 105.177L124.514 108.113L124.4 108.408L116.885 105.471L116.999 105.177Z" fill="#76A2CE"/>
<path d="M117.113 104.882L124.627 107.82L124.513 108.113L116.999 105.177L117.113 104.882Z" fill="#8DB0DA"/>
<path d="M124.512 107.77L124.171 108.652L124.349 108.721L124.69 107.839L124.512 107.77Z" fill="#F2F2F2"/>
<path d="M121.249 106.531C121.271 106.531 121.296 106.536 121.318 106.546C121.88 106.797 122.467 106.983 123.045 107.201C123.052 107.201 123.054 107.209 123.062 107.211C123.03 106.96 122.983 106.749 122.906 106.648C122.685 106.364 121.653 105.704 121.244 105.547C120.838 105.391 120.585 105.359 119.676 105.547C118.767 105.736 118.955 106.143 119.144 106.176C119.332 106.208 120.962 106.238 121.244 106.521C121.244 106.521 121.246 106.526 121.249 106.528V106.531Z" fill="#FFAA81"/>
<path d="M123.223 108.369C123.02 108.249 122.817 108.13 122.611 108.016C122.383 107.887 122.108 107.661 121.853 107.604C121.831 107.599 121.814 107.589 121.796 107.579C121.516 107.512 121.313 107.467 121.313 107.467C121.313 107.467 120.56 107.278 120.404 107.152C120.248 107.025 119.433 106.836 118.995 106.963C118.557 107.09 119.716 107.718 120.498 108.031C121.281 108.346 121.908 108.565 122.19 108.974C122.257 109.071 122.334 109.315 122.42 109.665C122.812 109.6 123.2 109.531 123.592 109.459C123.411 108.979 123.285 108.639 123.255 108.535C123.243 108.488 123.23 108.431 123.22 108.371L123.223 108.369Z" fill="#FFAA81"/>
</g>
</g>
<defs>
<clipPath id="clip0_40_2148">
<rect width="207" height="200" fill="white"/>
</clipPath>
<clipPath id="clip1_40_2148">
<rect width="196.259" height="163.902" fill="white" transform="translate(10.7407 36.0975)"/>
</clipPath>
</defs>
</svg>
